<svg width="48" height="48" viewBox="0 0 48 48" fill="none" xmlns="http://www.w3.org/2000/svg">
<path d="M30.7098 31.5C29.8798 32.74 28.9998 33.95 27.6598 33.97C26.3198 34 25.8898 33.18 24.3698 33.18C22.8398 33.18 22.3698 33.95 21.0998 34C19.7898 34.05 18.7998 32.68 17.9598 31.47C16.2498 29 14.9398 24.45 16.6998 21.39C17.5698 19.87 19.1298 18.91 20.8198 18.88C22.0998 18.86 23.3198 19.75 24.1098 19.75C24.8898 19.75 26.3698 18.68 27.9198 18.84C28.5698 18.87 30.3898 19.1 31.5598 20.82C31.4698 20.88 29.3898 22.1 29.4098 24.63C29.4398 27.65 32.0598 28.66 32.0898 28.67C32.0598 28.74 31.6698 30.11 30.7098 31.5ZM24.9998 15.5C25.7298 14.67 26.9398 14.04 27.9398 14C28.0698 15.17 27.5998 16.35 26.8998 17.19C26.2098 18.04 25.0698 18.7 23.9498 18.61C23.7998 17.46 24.3598 16.26 24.9998 15.5Z" fill="#1D1D1F"/>
<rect x="1" y="1" width="46" height="46" rx="23" stroke="#1D1D1F" stroke-width="2"/>
</svg>
