<svg width="16" height="16" viewBox="0 0 16 16" fill="none" xmlns="http://www.w3.org/2000/svg">
<g id="Frame 80" clip-path="url(#clip0_1641_5784)">
<g id="&#240;&#159;&#166;&#134; icon &#34;shopping cart&#34;">
<path id="Vector" d="M2.70657 11.2069C2.75572 11.7564 3.00917 12.2674 3.41685 12.6391C3.82453 13.0107 4.35678 13.216 4.90844 13.2142H12.9289C13.4806 13.216 14.0128 13.0107 14.4205 12.6391C14.8282 12.2674 15.0816 11.7564 15.1308 11.2069L15.7233 4.55706C15.7411 4.3728 15.7195 4.18685 15.6601 4.01154C15.6006 3.83623 15.5046 3.67554 15.3784 3.54013C15.2537 3.40383 15.1021 3.29492 14.9331 3.22033C14.7642 3.14574 14.5815 3.10709 14.3968 3.10683H2.87459L2.75079 1.49743C2.71933 1.1105 2.54375 0.749486 2.25881 0.485835C1.97387 0.222183 1.60033 0.0751124 1.21213 0.0737305H0.354374C0.237111 0.0737305 0.12465 0.120313 0.0417321 0.203231C-0.0411857 0.286149 -0.0877686 0.39861 -0.0877686 0.515873C-0.0859449 0.632568 -0.0387765 0.743972 0.0437494 0.826498C0.126275 0.909024 0.237679 0.956192 0.354374 0.958016H1.21213C1.37909 0.957891 1.53999 1.02058 1.66286 1.13362C1.78573 1.24666 1.86158 1.40178 1.87535 1.56817L2.70657 11.2069ZM14.2465 11.1273C14.2173 11.4563 14.0657 11.7624 13.8218 11.985C13.5778 12.2077 13.2592 12.3308 12.9289 12.3299H4.90844C4.57815 12.3308 4.25955 12.2077 4.01559 11.985C3.77164 11.7624 3.62008 11.4563 3.59086 11.1273L2.94533 3.98935H14.3968C14.4583 3.98838 14.5192 4.00049 14.5756 4.02488C14.6321 4.04928 14.6826 4.08539 14.724 4.13083C14.7658 4.17737 14.7975 4.232 14.8173 4.29132C14.8371 4.35065 14.8445 4.41341 14.839 4.4757L14.2465 11.1273Z" fill="#1D1D1F"/>
<path id="Vector_2" d="M6.00428 15.8635C6.49266 15.8635 6.88857 15.4676 6.88857 14.9793C6.88857 14.4909 6.49266 14.095 6.00428 14.095C5.5159 14.095 5.12 14.4909 5.12 14.9793C5.12 15.4676 5.5159 15.8635 6.00428 15.8635Z" fill="#1D1D1F"/>
<path id="Vector_3" d="M11.7426 15.8635C12.2309 15.8635 12.6268 15.4676 12.6268 14.9793C12.6268 14.4909 12.2309 14.095 11.7426 14.095C11.2542 14.095 10.8583 14.4909 10.8583 14.9793C10.8583 15.4676 11.2542 15.8635 11.7426 15.8635Z" fill="#1D1D1F"/>
</g>
</g>
<defs>
<clipPath id="clip0_1641_5784">
<rect width="16" height="16" fill="white"/>
</clipPath>
</defs>
</svg>
