<svg width="21" height="19" viewBox="0 0 21 19" fill="none" xmlns="http://www.w3.org/2000/svg">
<path d="M11.5001 3.09439C11.2154 3.34556 10.788 3.34442 10.5047 3.09173L10.4694 3.06023C10.4691 3.05999 10.4688 3.05975 10.4685 3.05951C9.88086 2.53874 9.18385 2.15643 8.42882 1.94073C7.67347 1.72494 6.87932 1.68141 6.10491 1.81335L11.5001 3.09439ZM11.5001 3.09439L11.5326 3.06572C11.5328 3.06553 11.533 3.06534 11.5332 3.06514C12.0942 2.57307 12.7535 2.20621 13.4674 1.98902C14.1797 1.7723 14.9299 1.70958 15.6683 1.80499L15.8984 1.83867C16.828 2.00086 17.6967 2.41061 18.4132 3.02486C19.132 3.64114 19.6707 4.44033 19.9724 5.33781C20.2741 6.23528 20.3274 7.19764 20.1268 8.12296C19.9267 9.04587 19.4814 9.89767 18.8378 10.5887L18.6875 10.7432L18.6658 10.7617C18.6518 10.7737 18.6382 10.7862 18.6251 10.7991M11.5001 3.09439L18.6251 10.7991M18.6251 10.7991L11.1753 18.178L18.6251 10.7991ZM3.3307 10.7561L3.33068 10.7562L10.8068 18.1614L10.8596 18.2075C10.9052 18.2383 10.9598 18.2532 11.015 18.2498C11.0753 18.246 11.1321 18.2206 11.1751 18.1781L3.3307 10.7561ZM3.3307 10.7561L3.3259 10.7515M3.3307 10.7561L3.3259 10.7515M3.3259 10.7515C2.63135 10.0757 2.13739 9.22082 1.89874 8.28158M3.3259 10.7515L1.89874 8.28158M1.89874 8.28158C1.6601 7.34235 1.68607 6.35538 1.97378 5.43M1.89874 8.28158L1.97378 5.43M1.97378 5.43C2.2615 4.50461 2.79973 3.67692 3.52887 3.03859M1.97378 5.43L3.52887 3.03859M3.52887 3.03859C4.258 2.40026 5.14957 1.9762 6.10486 1.81336L3.52887 3.03859Z" stroke="#F5F5F7" stroke-width="1.5" stroke-linecap="round" stroke-linejoin="round"/>
</svg>
