<svg width="24" height="24" viewBox="0 0 24 24" fill="none" xmlns="http://www.w3.org/2000/svg">
<g id="heart_small" clip-path="url(#clip0_1627_4643)">
<path id="Vector" d="M19.5003 13.5721L12.0003 21.0001L4.5003 13.5721C4.00561 13.0907 3.61594 12.5121 3.35585 11.8727C3.09575 11.2333 2.97086 10.547 2.98904 9.85699C3.00721 9.16697 3.16806 8.48819 3.46146 7.86339C3.75485 7.23859 4.17444 6.68131 4.69379 6.22663C5.21314 5.77196 5.82101 5.42974 6.47911 5.22154C7.13722 5.01333 7.83131 4.94364 8.51767 5.01686C9.20403 5.09007 9.8678 5.30461 10.4672 5.64696C11.0666 5.98931 11.5885 6.45205 12.0003 7.00605C12.4138 6.45608 12.9364 5.99738 13.5354 5.65866C14.1344 5.31994 14.7968 5.1085 15.4812 5.03757C16.1657 4.96665 16.8574 5.03775 17.5131 5.24645C18.1688 5.45514 18.7743 5.79693 19.2919 6.25042C19.8094 6.70391 20.2277 7.25934 20.5207 7.88195C20.8137 8.50455 20.975 9.18094 20.9946 9.86876C21.0142 10.5566 20.8916 11.241 20.6344 11.8793C20.3773 12.5176 19.9912 13.0959 19.5003 13.5781" stroke="#1D1D1F" stroke-width="1.5" stroke-linecap="round" stroke-linejoin="round"/>
</g>
<defs>
<clipPath id="clip0_1627_4643">
<rect width="24" height="24" fill="white"/>
</clipPath>
</defs>
</svg>
