<svg width="24" height="24" viewBox="0 0 24 24" fill="none" xmlns="http://www.w3.org/2000/svg">
<g id="&#240;&#159;&#166;&#134; icon &#34;filter&#34;" clip-path="url(#clip0_1054_14149)">
<path id="Vector" d="M5.50108 4.99993H18.5011C18.6451 5.05044 18.7756 5.13324 18.8827 5.242C18.9898 5.35075 19.0706 5.48257 19.1188 5.62735C19.1671 5.77214 19.1816 5.92605 19.1612 6.0773C19.1407 6.22855 19.086 6.37312 19.0011 6.49994L14.0011 12V19L10.0011 16V12L5.00108 6.49994C4.91617 6.37312 4.86142 6.22855 4.84101 6.0773C4.8206 5.92605 4.83509 5.77214 4.88335 5.62735C4.93161 5.48257 5.01237 5.35075 5.11945 5.242C5.22652 5.13324 5.35707 5.05044 5.50108 4.99993Z" stroke="#1D1D1F" stroke-width="1.33334" stroke-linecap="round" stroke-linejoin="round"/>
</g>
<defs>
<clipPath id="clip0_1054_14149">
<rect width="24" height="24.0001" fill="white"/>
</clipPath>
</defs>
</svg>
