<svg width="48" height="48" viewBox="0 0 48 48" fill="none" xmlns="http://www.w3.org/2000/svg">
<path d="M24 22.7143V25.8H29.1429C28.8857 27.0857 27.6 29.6571 24 29.6571C20.9143 29.6571 18.4714 27.0857 18.4714 24C18.4714 20.9143 20.9143 18.3429 24 18.3429C25.8 18.3429 26.9571 19.1143 27.6 19.7571L30.0429 17.4429C28.5 15.9 26.4429 15 24 15C18.9857 15 15 18.9857 15 24C15 29.0143 18.9857 33 24 33C29.1429 33 32.6143 29.4 32.6143 24.2571C32.6143 23.6143 32.6143 23.2286 32.4857 22.7143H24Z" fill="#1D1D1F"/>
<rect x="1" y="1" width="46" height="46" rx="23" stroke="#1D1D1F" stroke-width="2"/>
</svg>
