<svg width="98" height="16" viewBox="0 0 98 16" fill="none" xmlns="http://www.w3.org/2000/svg">
<path d="M14.6219 13.1074H16.6179V2.98312H14.6219V13.1074Z" fill="#282828"/>
<path d="M22.426 5.67328C21.4425 5.67328 20.7193 6.00593 20.271 6.6857V5.87577H18.4052V13.1074H20.271V9.2023C20.271 8.00186 20.8929 7.40886 21.8619 7.40886C22.7297 7.40886 23.2938 7.92954 23.2938 8.89857V13.1074H25.1596V8.66716C25.1596 7.72706 24.8992 7.00389 24.3786 6.46876C23.8723 5.93362 23.2215 5.67328 22.426 5.67328Z" fill="#282828"/>
<path d="M26.8395 2.98312V13.1074H30.8602C32.2487 13.1074 33.4058 12.6156 34.3314 11.6466C35.2715 10.6775 35.7344 9.4771 35.7344 8.04525C35.7344 6.61339 35.2715 5.41294 34.3314 4.44391C33.4058 3.47487 32.2487 2.98312 30.8602 2.98312H26.8395ZM28.8354 11.1982V4.89227H30.8602C31.7425 4.89227 32.4512 5.18153 33.0008 5.77452C33.5504 6.35305 33.8252 7.10514 33.8252 8.04525C33.8252 8.98535 33.5504 9.73744 33.0008 10.3304C32.4512 10.909 31.7425 11.1982 30.8602 11.1982H28.8354Z" fill="#282828"/>
<path d="M44.0926 10.2581C44.1359 9.98331 44.1649 9.73744 44.1649 9.49157C44.1649 8.40683 43.8178 7.51011 43.1235 6.77248C42.4437 6.03486 41.5615 5.67328 40.5057 5.67328C39.392 5.67328 38.4663 6.03486 37.7576 6.77248C37.0489 7.49564 36.6874 8.40683 36.6874 9.49157C36.6874 10.5908 37.0489 11.502 37.7721 12.2251C38.4953 12.9483 39.4499 13.3099 40.6503 13.3099C42.0388 13.3099 43.0946 12.7892 43.8033 11.7623L42.2991 10.8945C41.9375 11.3718 41.3879 11.6177 40.6792 11.6177C39.5656 11.6177 38.8858 11.1693 38.6399 10.2581H44.0926ZM38.611 8.81179C38.8279 7.88615 39.5077 7.35101 40.5057 7.35101C41.359 7.35101 42.0822 7.8283 42.2991 8.81179H38.611Z" fill="#282828"/>
<path d="M48.1788 10.9379L46.4287 5.87577H44.3749L47.123 13.1074H49.2491L51.9971 5.87577H49.9433L48.1788 10.9379Z" fill="#282828"/>
<path d="M61.459 7.6692V9.43371H64.5252C64.1636 10.6342 63.1223 11.3573 61.5747 11.3573C60.5333 11.3573 59.6945 11.0536 59.0581 10.4317C58.4362 9.80976 58.118 9.01428 58.118 8.05971C58.118 7.09067 58.4217 6.2952 59.0436 5.67328C59.6656 5.0369 60.461 4.71871 61.4301 4.71871C62.6305 4.71871 63.6719 5.29724 64.1492 6.12164L65.8558 5.13814C64.988 3.70628 63.3392 2.78064 61.4445 2.78064C59.9403 2.78064 58.682 3.28685 57.6552 4.31374C56.6427 5.34063 56.1365 6.58446 56.1365 8.05971C56.1365 9.52049 56.6427 10.7643 57.6696 11.7912C58.6965 12.8036 59.9982 13.3099 61.5602 13.3099C63.021 13.3099 64.2215 12.8615 65.1471 11.9648C66.0728 11.0681 66.5356 9.89654 66.5356 8.45021V7.6692H61.459Z" fill="#282828"/>
<path d="M69.7342 5.87577H67.8685V13.1074H69.7342V9.65066C69.7342 8.95643 69.9512 8.46468 70.3996 8.16095C70.8479 7.85722 71.3686 7.74152 71.9327 7.81383V5.73113C70.9492 5.73113 70.0814 6.19396 69.7342 7.1196V5.87577Z" fill="#282828"/>
<path d="M79.1852 12.2106C79.9228 11.473 80.2989 10.5618 80.2989 9.49157C80.2989 8.42129 79.9228 7.52457 79.1852 6.78695C78.4476 6.04932 77.5364 5.67328 76.4661 5.67328C75.3958 5.67328 74.4846 6.04932 73.747 6.78695C73.0094 7.52457 72.6478 8.42129 72.6478 9.49157C72.6478 10.5618 73.0094 11.473 73.747 12.2106C74.4846 12.9483 75.3958 13.3099 76.4661 13.3099C77.5364 13.3099 78.4476 12.9483 79.1852 12.2106ZM75.0632 10.9234C74.7016 10.5474 74.5136 10.0701 74.5136 9.49157C74.5136 8.91304 74.7016 8.43575 75.0632 8.05971C75.4392 7.68367 75.902 7.49564 76.4661 7.49564C77.0302 7.49564 77.493 7.68367 77.869 8.05971C78.2451 8.43575 78.4331 8.91304 78.4331 9.49157C78.4331 10.0701 78.2451 10.5474 77.869 10.9234C77.493 11.2995 77.0302 11.4875 76.4661 11.4875C75.902 11.4875 75.4392 11.2995 75.0632 10.9234Z" fill="#282828"/>
<path d="M86.3843 9.78083C86.3843 10.9813 85.7624 11.5743 84.7933 11.5743C83.9255 11.5743 83.3615 11.0536 83.3615 10.0846V5.87577H81.4957V10.316C81.4957 11.2561 81.7561 11.9792 82.2623 12.5144C82.7829 13.0495 83.4338 13.3099 84.2293 13.3099C85.2128 13.3099 85.9359 12.9772 86.3843 12.2974V13.1074H88.2501V5.87577H86.3843V9.78083Z" fill="#282828"/>
<path d="M94.1677 5.67328C93.1553 5.67328 92.3742 6.0204 91.8246 6.72909V5.87577H89.9589V16H91.8246V12.254C92.3742 12.9627 93.1553 13.3099 94.1677 13.3099C95.1367 13.3099 95.9756 12.9483 96.6554 12.2106C97.3496 11.473 97.6967 10.5618 97.6967 9.49157C97.6967 8.42129 97.3496 7.52457 96.6554 6.78695C95.9756 6.04932 95.1367 5.67328 94.1677 5.67328ZM92.3887 10.9668C92.0127 10.5763 91.8246 10.0846 91.8246 9.49157C91.8246 8.89857 92.0127 8.40683 92.3887 8.03078C92.7647 7.64028 93.242 7.45225 93.8206 7.45225C94.3991 7.45225 94.8764 7.64028 95.2524 8.03078C95.6429 8.40683 95.831 8.89857 95.831 9.49157C95.831 10.0846 95.6429 10.5763 95.2524 10.9668C94.8764 11.3429 94.3991 11.5309 93.8206 11.5309C93.242 11.5309 92.7647 11.3429 92.3887 10.9668Z" fill="#282828"/>
<path fill-rule="evenodd" clip-rule="evenodd" d="M9.30604 8.37592C9.21449 8.0371 9.13029 7.89344 8.96766 7.77568C8.81554 7.66553 8.59347 7.57301 8.26946 7.50543C7.93198 7.44913 7.92241 7.28177 7.8378 7.01278C7.81311 6.93191 7.69078 6.91039 7.63799 6.96868C7.63054 6.96101 7.62278 6.95399 7.61475 6.94765C7.62194 6.90908 7.56309 6.79854 7.56505 6.76165C7.58558 6.37659 7.45358 6.18323 7.12412 6.11135C7.05248 6.09571 6.56582 6.08651 6.49596 6.10494C6.19056 6.18551 5.88991 6.44131 5.93592 6.74947C5.84005 6.86901 5.74623 6.94197 5.59833 6.98049C5.26918 7.02036 4.94006 7.05582 4.61083 7.08618C3.96636 7.18262 3.36212 7.50811 2.94914 7.98282C2.91105 8.02664 2.90004 8.08611 2.93366 8.13284C2.90733 8.24047 2.75909 8.50154 2.87573 8.57532C2.68392 9.01304 2.2426 9.85909 2.24177 10.1008C2.2383 11.1162 2.35325 12.4379 3.40337 12.9998C3.44542 13.0393 3.45143 13.0829 3.46964 13.1416C3.51581 13.3265 3.68348 13.4586 3.867 13.4478C4.77105 13.467 5.64669 13.3617 6.55076 13.3566C6.94946 13.3544 7.42893 13.4112 7.77527 13.449C8.12162 13.4868 8.47124 13.4534 8.80361 13.3566C8.83163 13.3987 8.8883 13.4233 8.94578 13.4112C9.29034 13.3458 9.56898 13.1432 9.81166 12.9218C9.88582 12.7931 10.1754 12.4263 10.0603 12.2986C10.1647 11.8777 10.1593 11.4254 9.97381 11.0246C10.0001 10.9511 9.95218 10.8703 9.97381 10.7945C9.98946 10.7396 10.0295 10.7168 10.0497 10.6625C10.0781 10.586 10.0472 10.4833 10.0153 10.4052C10.0022 10.3663 10.0394 10.3244 10.0497 10.2847C10.0988 10.0975 9.98646 10.114 9.9055 9.98876C9.9067 9.98837 9.92776 9.89899 9.92766 9.89944C9.94006 9.83562 9.909 9.75387 9.88191 9.7006C9.86361 9.6646 9.82439 9.64207 9.78542 9.6462C9.82466 9.51908 9.87429 9.41331 9.92766 9.29084C10.022 9.07496 10.1415 8.86824 10.2771 8.67283C10.3326 8.59282 10.258 8.50012 10.1682 8.49467C9.87748 8.47704 9.58994 8.4371 9.30604 8.37592Z" fill="white"/>
<path fill-rule="evenodd" clip-rule="evenodd" d="M8.4576 10.0086C8.34132 9.96513 8.21612 9.94108 8.09028 9.93175C8.15803 9.92042 8.22598 9.90949 8.29447 9.90388C8.34227 9.89997 8.38658 9.90037 8.4225 9.93496C8.44646 9.95801 8.4577 9.98768 8.47346 10.0149C8.46831 10.0127 8.46295 10.0106 8.4576 10.0086ZM9.70564 9.60181C9.51521 9.61104 9.32457 9.65425 9.15231 9.73253C9.08183 9.76461 9.01797 9.81092 8.99927 9.8871C8.98982 9.92601 8.99213 9.9662 8.99716 10.0055C9.00095 10.0353 9.0019 10.0733 9.029 10.0934C9.03362 10.0968 9.03855 10.0994 9.0437 10.1013C8.98015 10.1287 8.91964 10.1616 8.86586 10.1954C8.81672 10.2264 8.76619 10.2741 8.74351 10.328C8.74162 10.3219 8.73973 10.3162 8.73783 10.3107C8.69918 10.2017 8.63963 10.1124 8.54583 10.0523C8.56242 10.0452 8.57387 10.0283 8.56852 10.0051C8.54625 9.90795 8.45223 9.82355 8.34605 9.82956C8.22977 9.83608 8.10488 9.87648 7.99973 9.9275C7.9614 9.9267 7.92316 9.9272 7.88536 9.9288C7.87884 9.929 7.87916 9.93743 7.88536 9.93813C7.91603 9.94185 7.9467 9.94595 7.97737 9.95076C8.05026 9.96189 8.12295 9.97602 8.19405 9.99356C8.27935 10.0146 8.36758 10.0358 8.4473 10.0726C8.60191 10.144 8.69761 10.3309 8.67796 10.4935C8.67471 10.5201 8.66389 10.6007 8.62512 10.5924C8.59236 10.5854 8.57933 10.5201 8.56788 10.496C8.53721 10.4318 8.48197 10.3899 8.41569 10.3616C8.33785 10.3282 8.25456 10.3056 8.17388 10.2794C8.1282 10.2644 8.08251 10.2495 8.03671 10.2346C7.98987 10.2193 7.94533 10.1982 7.89544 10.2089C7.86529 10.2154 7.86183 10.2497 7.87874 10.2693C7.90447 10.2993 7.94271 10.3081 7.97978 10.3205C8.02873 10.3367 8.07757 10.3529 8.12642 10.3692C8.20193 10.3942 8.28103 10.4154 8.35465 10.4461L8.35235 10.4511C8.34635 10.4495 8.33931 10.4552 8.34048 10.4622C8.35151 10.5271 8.36684 10.602 8.34982 10.667C8.33638 10.7185 8.289 10.7756 8.22746 10.7604C8.23712 10.752 8.2407 10.7375 8.23418 10.724C8.2098 10.6743 7.8905 10.478 7.86204 10.5509C7.86109 10.5535 7.86402 10.5554 7.86634 10.555C7.89061 10.5502 7.93126 10.5897 7.95068 10.6022C7.97872 10.6203 8.00719 10.6379 8.03493 10.6565C8.06528 10.6767 8.0949 10.698 8.12379 10.7199C8.14648 10.7372 8.1636 10.7551 8.18964 10.7638C8.17599 10.77 8.16516 10.7816 8.16055 10.7963C8.14879 10.8347 8.1261 10.8673 8.08671 10.8842C8.04543 10.9019 7.9989 10.8907 7.95542 10.8951C7.89618 10.9008 7.8445 10.9276 7.80133 10.966C7.71068 11.0468 7.6652 11.1892 7.53842 11.2273C7.46269 11.2501 7.37866 11.2358 7.30198 11.2254C7.21638 11.2139 7.13298 11.2048 7.04674 11.2168C6.96418 11.2284 6.88614 11.2556 6.81073 11.2889C6.74004 11.3201 6.66189 11.3554 6.59918 11.4019C6.58626 11.3639 6.57324 11.3263 6.56335 11.2875C6.54005 11.1958 6.52744 11.1023 6.52439 11.0081C6.52156 10.9184 6.52681 10.8283 6.53489 10.739C6.53889 10.6944 6.54519 10.6499 6.54918 10.6053C6.55022 10.5941 6.55234 10.5821 6.55391 10.5701C6.66588 10.507 6.78351 10.4587 6.9021 10.409C6.90242 10.4089 6.90274 10.4087 6.90305 10.4086C6.90673 10.407 6.9103 10.4055 6.91398 10.404C6.91387 10.4038 6.91377 10.4036 6.91356 10.4034C6.92711 10.3954 6.93656 10.3849 6.94223 10.3731C7.11313 10.2649 7.25598 10.1173 7.36248 9.94504C7.40712 9.87287 7.45008 9.79799 7.50848 9.73474C7.57067 9.66727 7.64451 9.62717 7.73589 9.60632C7.84271 9.58187 7.95279 9.56723 8.06224 9.55891C8.122 9.55441 8.1888 9.54738 8.25393 9.54769C8.29931 9.54798 8.34373 9.55169 8.38449 9.56242C8.44489 9.57826 8.48018 9.62207 8.5181 9.66637C8.55434 9.70888 8.59036 9.75148 8.62418 9.79579C8.65621 9.83778 8.68647 9.88119 8.71273 9.9267C8.72849 9.95396 8.74309 9.98204 8.75538 10.011C8.75968 10.0212 8.76535 10.0329 8.76798 10.0435C8.77061 10.0542 8.76577 10.0655 8.77838 10.0655C8.72639 10.0662 8.72691 10.1455 8.77859 10.1426C8.98089 10.1314 8.69109 9.75449 8.64875 9.70195C8.58878 9.62757 8.52692 9.53054 8.43092 9.49596C8.42955 9.49546 8.42808 9.49496 8.42672 9.49455C8.45466 9.46929 8.47671 9.43903 8.49783 9.40824C8.51957 9.37657 8.5455 9.34028 8.55265 9.30269C8.55717 9.27874 8.52598 9.2651 8.51117 9.28605C8.48963 9.31662 8.47923 9.35532 8.46316 9.38891C8.44678 9.42298 8.42682 9.45516 8.41107 9.48954C8.37315 9.47841 8.33218 9.47331 8.29048 9.47161C8.34311 9.40364 8.43301 9.27252 8.44384 9.25567C8.49362 9.17769 8.541 9.0973 8.58627 9.0168C8.6352 8.92959 8.67712 8.83877 8.72397 8.75055C8.75054 8.70054 8.77733 8.65011 8.80684 8.60159C8.81703 8.58495 8.82796 8.56831 8.84035 8.55317C8.84277 8.55018 8.84581 8.54767 8.84865 8.54485C8.8519 8.54315 8.85527 8.54125 8.85716 8.54025C8.87416 8.53093 8.88016 8.50928 8.89212 8.49554C8.91125 8.47339 8.93373 8.47079 8.96251 8.47047C9.02384 8.46987 9.0854 8.47218 9.14664 8.47378C9.23665 8.47619 9.32657 8.4796 9.41648 8.48411C9.44368 8.48551 9.47078 8.48691 9.49798 8.48852C9.62876 8.49595 9.75942 8.50566 9.88977 8.5176C10.0051 8.52811 10.1204 8.54527 10.2359 8.55349C10.0796 8.90784 9.90626 9.25578 9.71004 9.5916C9.70806 9.595 9.70658 9.5984 9.70564 9.60181ZM8.83846 10.5147C8.81325 10.5258 8.78877 10.5395 8.76598 10.5551C8.76976 10.5308 8.77071 10.5051 8.76966 10.4793C8.78846 10.4986 8.81251 10.5096 8.83846 10.5147ZM9.91456 9.90518C9.91277 9.90537 9.91109 9.90628 9.91025 9.90798C9.87538 9.97665 9.88997 10.0533 9.94691 10.1072C9.97674 10.1352 10.0418 10.1669 10.0396 10.213C10.0379 10.2503 9.99533 10.2816 9.97716 10.3124C9.96025 10.341 9.95395 10.3725 9.9675 10.4036C9.98483 10.4434 10.0332 10.4592 10.0498 10.4983C10.0709 10.5479 10.0367 10.6078 10.0128 10.651C9.9905 10.691 9.96171 10.731 9.9426 10.7733C9.81456 10.8365 9.69997 10.9336 9.60144 11.0321C9.49357 11.1399 9.40103 11.2667 9.22972 11.2635C9.2126 11.2632 9.19957 11.2718 9.1918 11.2837C9.14411 11.2858 9.09632 11.2867 9.04864 11.2869C8.96482 11.2873 8.881 11.2865 8.79728 11.284C8.7914 11.2647 8.79571 11.2384 8.79538 11.2221C8.79434 11.1694 8.79382 11.1169 8.79151 11.0643C8.79087 11.0497 8.79025 11.0349 8.78961 11.0203C8.81976 11.0723 8.87858 11.096 8.94559 11.0923C9.05336 11.0863 9.16176 11.0695 9.26847 11.0544C9.32467 11.0464 9.38076 11.0374 9.43675 11.0278C9.48275 11.02 9.54766 11.022 9.57981 10.9868C9.58737 10.9786 9.58779 10.9635 9.57592 10.958C9.54409 10.9431 9.52403 10.9514 9.48904 10.9578C9.44641 10.9657 9.40366 10.9733 9.36079 10.9803C9.27855 10.9939 9.19611 11.0065 9.11344 11.0177C9.06639 11.024 9.01923 11.0302 8.97206 11.0351C8.93089 11.0393 8.88446 11.045 8.85127 11.0155C8.78436 10.9557 8.82186 10.8556 8.86419 10.7952C8.86503 10.794 8.86503 10.7929 8.86472 10.7919C8.90463 10.783 8.94444 10.7726 8.98414 10.7653C9.0605 10.7512 9.13739 10.7394 9.21438 10.7289C9.37257 10.7073 9.5318 10.6931 9.69082 10.6788C9.73021 10.6751 9.73063 10.616 9.69082 10.6195C9.46236 10.6395 9.23276 10.6584 9.00736 10.7004C8.95085 10.7108 8.89475 10.7227 8.83898 10.736C8.81262 10.7422 8.78436 10.7519 8.75674 10.7522C8.75506 10.7522 8.75337 10.7522 8.7517 10.7521C8.6976 10.7505 8.68972 10.7063 8.71945 10.6695C8.72313 10.665 8.72691 10.6605 8.73079 10.6562C8.78331 10.5964 8.84874 10.5566 8.91617 10.5153C8.99171 10.5054 9.06702 10.4836 9.14096 10.4675C9.32352 10.4278 9.50607 10.3881 9.68873 10.3485C9.72454 10.3407 9.70932 10.2882 9.6735 10.2959C9.53485 10.3259 9.3962 10.3559 9.25754 10.3858L9.05462 10.4298C9.01408 10.4385 8.96344 10.456 8.91575 10.4623C8.89224 10.4654 8.86944 10.4658 8.84886 10.4612C8.78237 10.4462 8.77901 10.3669 8.80768 10.3198C8.83982 10.2669 8.90053 10.2338 8.95442 10.2038C9.04779 10.1518 9.14716 10.1144 9.24421 10.0713C9.26144 10.0677 9.27867 10.0641 9.29589 10.0604C9.3961 10.0394 9.51059 10.0291 9.60491 9.99049C9.63316 9.97905 9.61771 9.93655 9.58978 9.93715C9.51657 9.93867 9.44 9.96352 9.36847 9.97825C9.29106 9.99429 9.21354 10.0102 9.13613 10.0262C9.12836 10.0278 9.08235 10.0418 9.07542 10.0387C9.07101 10.0367 9.06943 10.0221 9.06796 10.0124C9.06322 9.98076 9.05977 9.94749 9.06492 9.9157C9.07626 9.84443 9.13855 9.81095 9.20157 9.78358C9.3419 9.72273 9.49578 9.68465 9.64892 9.6694C9.68421 9.66589 9.7195 9.6637 9.75501 9.66259C9.7967 9.66138 9.83105 9.65437 9.85217 9.69356C9.88536 9.75531 9.90363 9.83471 9.91456 9.90518ZM9.71968 12.144C9.6891 12.0431 9.69742 11.9354 9.67648 11.8324C9.66567 11.7793 9.65091 11.7266 9.6348 11.6748C9.62179 11.6329 9.6001 11.5884 9.59764 11.5446C9.5975 11.5417 9.6011 11.54 9.60358 11.5414C9.64672 11.565 9.67985 11.6159 9.70445 11.6559C9.7339 11.7038 9.75639 11.7539 9.77453 11.8066C9.81068 11.9116 9.84036 12.0382 9.79374 12.144C9.77986 12.1755 9.73113 12.1818 9.71968 12.144ZM8.7747 10.8072C8.80054 10.8048 8.82638 10.8001 8.85222 10.7946C8.82333 10.8215 8.79665 10.8538 8.78183 10.8897C8.77953 10.8622 8.77658 10.8347 8.7727 10.8073C8.77333 10.8073 8.77407 10.8073 8.7747 10.8072ZM8.52637 12.9081C8.4808 12.8777 8.4476 12.8353 8.40896 12.7978C8.37096 12.761 8.43037 12.7043 8.46838 12.7411C8.50135 12.7731 8.52997 12.813 8.56877 12.8388C8.58745 12.8512 8.59609 12.8737 8.58386 12.8937C8.57304 12.9113 8.54499 12.9205 8.52637 12.9081ZM8.27226 11.7417C8.35544 11.7074 8.43725 11.67 8.5243 11.6453C8.57632 11.6305 8.59835 11.708 8.54664 11.7226C8.46647 11.7454 8.39127 11.7794 8.31468 11.811C8.2655 11.8313 8.22276 11.7622 8.27226 11.7417ZM7.39384 11.7177C7.3735 11.6698 7.45483 11.6492 7.47487 11.6964C7.49794 11.7508 7.52439 11.8037 7.54747 11.8581C7.56779 11.906 7.48649 11.9266 7.46644 11.8794C7.44337 11.8251 7.41691 11.7721 7.39384 11.7177ZM6.52682 12.6742C6.51327 12.6915 6.49068 12.7008 6.46934 12.6886C6.45146 12.6784 6.44055 12.6512 6.45426 12.6338C6.49431 12.5828 6.53489 12.5325 6.58183 12.4871C6.61989 12.4502 6.67927 12.507 6.64125 12.5438C6.59933 12.5843 6.5626 12.6287 6.52682 12.6742ZM6.40285 7.30734C6.44142 7.33248 6.47521 7.36303 6.50816 7.39445C6.54646 7.43099 6.48703 7.48769 6.44873 7.45115C6.42097 7.42467 6.39296 7.39778 6.36043 7.37659C6.34164 7.36434 6.33321 7.34155 6.34536 7.32173C6.35625 7.30396 6.3841 7.29513 6.40285 7.30734ZM7.66425 8.59785C7.64244 8.63952 7.62281 8.68037 7.62157 8.72773C7.62024 8.77933 7.53622 8.77936 7.53755 8.72773C7.53916 8.66575 7.56311 8.612 7.59169 8.55737C7.61586 8.51113 7.68832 8.55179 7.66425 8.59785ZM8.12705 7.5614C8.17223 7.53266 8.21425 7.60216 8.16948 7.63065C8.13318 7.65373 8.09687 7.67684 8.06056 7.69994C8.01541 7.72866 7.97338 7.65918 8.01815 7.63069C8.05445 7.60759 8.09075 7.5845 8.12705 7.5614ZM6.11964 9.37351C6.11193 9.42447 6.03097 9.40267 6.0386 9.3522C6.05042 9.27419 6.06484 9.19721 6.08701 9.12123C6.10153 9.07151 6.18257 9.09276 6.16804 9.14255C6.14587 9.21854 6.13145 9.29551 6.11964 9.37351ZM5.82503 10.2921C5.77094 10.2911 5.77093 10.2109 5.82503 10.212C5.87397 10.2129 5.92209 10.2252 5.9693 10.2365C6.02182 10.249 5.99943 10.3263 5.94696 10.3138C5.90705 10.3043 5.86641 10.293 5.82503 10.2921ZM5.71627 12.1426C5.69769 12.1512 5.67862 12.159 5.65984 12.1672C5.62223 12.1836 5.58464 12.2 5.54705 12.2165C5.46876 12.2508 5.39051 12.2852 5.31233 12.3198C5.15582 12.3889 4.99811 12.4556 4.84123 12.524C4.68125 12.5937 4.52168 12.6644 4.36232 12.7354C4.28724 12.7689 4.2116 12.8011 4.13609 12.8337C4.07154 12.8616 3.99174 12.9102 3.92087 12.9148C3.91723 12.9151 3.91601 12.9107 3.91809 12.9084C3.94486 12.8793 3.98757 12.8624 4.02276 12.8436C4.0587 12.8242 4.09532 12.8061 4.13177 12.7877C4.20775 12.7493 4.28383 12.7111 4.36055 12.6741C4.51401 12.6 4.66776 12.5264 4.82154 12.4529C4.97838 12.3779 5.13503 12.3025 5.29324 12.2302C5.36773 12.1962 5.4423 12.1622 5.51691 12.1284C5.55733 12.1101 5.59776 12.0918 5.6382 12.0735C5.65567 12.0656 5.67296 12.0571 5.69082 12.0501C5.71454 12.0407 5.73258 12.0426 5.75705 12.0368C5.79697 12.0274 5.81425 12.0759 5.78361 12.097C5.75838 12.1143 5.7451 12.1292 5.71627 12.1426ZM5.1553 12.9649C5.14668 12.9449 5.16473 12.9206 5.18465 12.9156C5.2085 12.9096 5.22763 12.9234 5.23634 12.9436C5.25937 12.997 5.29219 13.0461 5.33442 13.0876C5.37217 13.1246 5.31278 13.1813 5.275 13.1443C5.22207 13.0923 5.18405 13.0316 5.1553 12.9649ZM4.7426 11.6777C4.70429 11.6411 4.76372 11.5844 4.80202 11.621L4.91092 11.7249C4.94923 11.7615 4.88979 11.8182 4.8515 11.7816L4.7426 11.6777ZM3.62533 11.5082C3.54703 11.5301 3.45571 11.5503 3.40233 11.614C3.39973 11.6172 3.39535 11.6132 3.39691 11.61C3.46525 11.4748 3.66123 11.4274 3.79691 11.38C3.89289 11.3465 3.99136 11.3187 4.09066 11.2939C4.08073 11.1858 4.10811 11.0699 4.11762 10.9624C4.12778 10.8475 4.13605 10.7324 4.14029 10.6171C4.14463 10.4996 4.14568 10.3813 4.14162 10.2637C4.13759 10.1466 4.12166 10.0309 4.11468 9.91413C4.11401 9.90284 4.13048 9.9023 4.13403 9.91163C4.17527 10.02 4.19288 10.14 4.20631 10.2542C4.22013 10.3719 4.22472 10.4892 4.22295 10.6076C4.22113 10.7293 4.21371 10.8507 4.20353 10.972C4.19871 11.0295 4.19311 11.0869 4.18783 11.1443C4.1838 11.1882 4.18193 11.2317 4.17256 11.2741C4.23245 11.2601 4.29248 11.2468 4.35232 11.2339C4.54313 11.1928 4.73473 11.1547 4.92475 11.1103C5.01802 11.0885 5.10996 11.0623 5.20281 11.0392C5.29024 11.0173 5.38253 10.9908 5.47229 10.9811C5.50433 10.9776 5.5084 11.0194 5.4872 11.0336C5.41424 11.0825 5.31734 11.1165 5.23307 11.1439C5.14849 11.1714 5.06058 11.1911 4.97389 11.2115C4.79311 11.2539 4.61062 11.2886 4.42841 11.3247C4.24644 11.3608 4.06413 11.3966 3.88421 11.4412C3.79757 11.4626 3.71121 11.4842 3.62533 11.5082ZM3.19629 9.36284C3.1495 9.38905 3.10727 9.31972 3.15388 9.29359C3.21488 9.25943 3.27989 9.23376 3.34542 9.20872C3.39571 9.18951 3.41735 9.2671 3.36776 9.28605C3.30887 9.30855 3.2511 9.33215 3.19629 9.36284ZM3.02688 12.3422C2.97997 12.3682 2.9377 12.2988 2.98447 12.273C3.05016 12.2366 3.1221 12.2124 3.19018 12.1806C3.23861 12.1579 3.28115 12.2271 3.23258 12.2498C3.16452 12.2816 3.09257 12.3059 3.02688 12.3422ZM2.95068 10.651C2.99604 10.6921 3.05657 10.7114 3.11365 10.733C3.16341 10.7519 3.14159 10.8294 3.09131 10.8104C3.0202 10.7834 2.94776 10.7589 2.89126 10.7077C2.85196 10.672 2.91148 10.6154 2.95068 10.651ZM3.45246 8.35414C3.50232 8.3728 3.48048 8.45033 3.43012 8.43148C3.37426 8.41056 3.31657 8.39465 3.26072 8.37374C3.21087 8.35507 3.23269 8.27755 3.28306 8.2964C3.33892 8.31731 3.3966 8.33323 3.45246 8.35414ZM4.33764 7.44188C4.39062 7.43336 4.41318 7.51065 4.35998 7.51922C4.29397 7.52985 4.22898 7.54229 4.16637 7.56541C4.11582 7.58407 4.09413 7.50651 4.14403 7.48808C4.20664 7.46497 4.27164 7.45252 4.33764 7.44188ZM4.63011 9.66307C4.58153 9.64027 4.62415 9.57115 4.67251 9.59383C4.72347 9.61774 4.77628 9.63622 4.83188 9.64752C4.88483 9.65829 4.86228 9.73558 4.80954 9.72486C4.74696 9.71213 4.68741 9.68996 4.63011 9.66307ZM4.90634 8.41189C4.95865 8.39822 4.98077 8.4756 4.92868 8.48923C4.83704 8.51319 4.74268 8.52565 4.65037 8.54697C4.59775 8.55912 4.5755 8.48177 4.62803 8.46964C4.72034 8.44831 4.81471 8.43587 4.90634 8.41189ZM6.0782 8.01925C6.13139 8.02864 6.10872 8.10592 6.05587 8.09659C5.9996 8.08665 5.94257 8.08649 5.88553 8.08646C5.83137 8.08644 5.83147 8.00625 5.88553 8.00627C5.95034 8.0063 6.01432 8.00797 6.0782 8.01925ZM9.90008 8.43813C9.76279 8.4256 9.6253 8.41558 9.4876 8.40806C9.48118 8.40775 9.47489 8.40736 9.46847 8.40705C9.46774 8.40565 9.4668 8.40434 9.46584 8.40294C9.4209 8.33998 9.38781 8.27704 9.35914 8.20586C9.33172 8.1381 9.30515 8.06824 9.26292 8.00709C9.21476 7.93742 9.14975 7.88291 9.07849 7.83566C9.03527 7.8634 8.99515 7.89588 8.95845 7.9303C8.91983 7.96652 8.8604 7.90982 8.89903 7.8736C8.93165 7.843 8.96646 7.81474 9.00325 7.78921C8.96076 7.76457 8.91742 7.74142 8.87513 7.71838C8.71662 7.63208 8.55435 7.55228 8.3887 7.47931C8.31171 7.44532 8.23377 7.41515 8.15531 7.38457C8.11308 7.36814 8.07139 7.34698 8.02916 7.32794C8.03221 7.29947 8.02328 7.26759 8.00038 7.24884C7.98347 7.23511 7.97034 7.23 7.95017 7.22028C7.94566 7.21877 7.94293 7.21787 7.94167 7.21737C7.94261 7.21757 7.94534 7.21837 7.94985 7.21977C7.96057 7.22449 7.96141 7.22308 7.95238 7.21566C7.95185 7.19943 7.91834 7.16515 7.91068 7.14841C7.884 7.09096 7.8757 7.03021 7.83631 6.97789C7.78201 6.90581 7.69084 6.87856 7.60585 6.90301C7.59704 6.8163 7.59473 6.72579 7.56049 6.64839C7.55954 6.6463 7.5565 6.64538 7.55513 6.64769C7.51942 6.70574 7.51637 6.77039 7.51364 6.83735C7.51102 6.9002 7.51353 6.96446 7.52215 7.02691C7.51669 7.03092 7.51112 7.03474 7.50534 7.03843C7.47824 7.05548 7.44904 7.06861 7.41837 7.07834C7.35997 7.09678 7.29874 7.10479 7.2375 7.1076C7.07942 7.11482 6.91651 7.09958 6.76105 7.07372C6.60381 7.04756 6.36275 7.00826 6.22285 6.93318C6.13051 6.88367 6.04533 6.82321 5.95898 6.76467C5.99029 6.66844 5.99828 6.56499 5.96677 6.48369C5.96298 6.47397 5.94702 6.47216 5.94397 6.48369C5.92423 6.56128 5.91845 6.63927 5.89219 6.71595C5.89177 6.71706 5.89135 6.71827 5.89093 6.71936C5.88274 6.71406 5.87454 6.70884 5.86635 6.70362C5.84744 6.6917 5.82171 6.70063 5.81037 6.71766C5.62896 6.99042 5.34169 7.00606 5.04003 7.05478C4.70989 7.1081 4.37809 7.16564 4.06066 7.26999C3.75711 7.36985 3.467 7.5152 3.23718 7.73232C3.18515 7.78148 3.1365 7.83386 3.09058 7.88854C3.13501 7.89388 3.17907 7.9022 3.22257 7.91525C3.27407 7.93068 3.25193 8.00808 3.20022 7.99257C3.14432 7.97581 3.0878 7.96752 3.03071 7.96339C2.87455 8.16727 2.75279 8.39844 2.6475 8.62598C2.44555 9.06224 2.31409 9.52685 2.2536 9.99986C2.28681 9.98087 2.32063 9.96277 2.35528 9.94594C2.40343 9.92257 2.44589 9.99178 2.39769 10.0152C2.34416 10.0412 2.29217 10.0698 2.2418 10.1009C2.21979 10.3079 2.21126 10.5163 2.21643 10.7244C2.22872 11.2204 2.29888 11.7309 2.45759 12.2041C2.53543 12.4364 2.63857 12.6668 2.79224 12.863C2.86178 12.9519 2.94076 13.0321 3.03383 13.099C3.07889 13.1315 3.12657 13.1605 3.17689 13.1849C3.24169 13.2166 3.32614 13.227 3.38202 13.2718C3.4004 13.2866 3.41458 13.306 3.4253 13.328C3.4191 13.3697 3.41836 13.4115 3.43034 13.4532C3.43412 13.4662 3.44441 13.4768 3.45712 13.4819C3.45733 13.4855 3.45733 13.489 3.45733 13.4925C3.45733 13.4941 3.45985 13.4945 3.46017 13.4929C3.46069 13.4897 3.46122 13.4866 3.46175 13.4834C3.46584 13.4847 3.47015 13.4853 3.47456 13.4853C3.63411 13.4859 3.79386 13.4822 3.95362 13.477C3.94127 13.4409 3.92789 13.4051 3.91504 13.369C3.89759 13.3199 3.97878 13.2991 3.99607 13.3477C4.0111 13.3899 4.02681 13.4318 4.04079 13.4741C4.21197 13.4681 4.3831 13.4608 4.55392 13.4554C4.91724 13.4438 5.28046 13.44 5.64387 13.4327C6.20825 13.4213 6.77672 13.3979 7.34197 13.4208C7.36152 13.3812 7.3834 13.3425 7.40414 13.3035C7.42861 13.2574 7.50109 13.298 7.4767 13.3439C7.46228 13.3711 7.44734 13.3979 7.43315 13.425C7.54763 13.4306 7.662 13.4381 7.77612 13.4484C7.97086 13.4658 8.16371 13.4968 8.35824 13.516C8.55602 13.5357 8.7495 13.5322 8.94571 13.501C8.981 13.4954 9.0018 13.475 9.01041 13.4498C9.01072 13.4497 9.01094 13.4495 9.01114 13.4491C9.02122 13.4379 9.03069 13.4286 9.04044 13.4205C9.05211 13.4133 9.06472 13.4071 9.07953 13.4017C9.10715 13.3917 9.13593 13.3856 9.16513 13.3815C9.19728 13.3769 9.22984 13.3765 9.26198 13.3727C9.28907 13.3694 9.31555 13.3644 9.34201 13.3584C9.3896 13.3476 9.43476 13.3335 9.47972 13.3147C9.5189 13.2984 9.55428 13.2749 9.5877 13.2494C9.65681 13.2011 9.71667 13.1396 9.76899 13.0756C9.79945 13.0383 9.82813 12.9995 9.85417 12.9591C9.89955 12.8891 9.9382 12.8164 9.97728 12.7431C9.99146 12.7214 10.0044 12.6992 10.0162 12.6765C9.93986 12.655 9.86277 12.6375 9.78182 12.6363C9.7277 12.6354 9.72771 12.5552 9.78182 12.5561C9.87466 12.5575 9.96248 12.5782 10.0497 12.6029C10.054 12.5921 10.0581 12.5812 10.0618 12.5702C10.0722 12.5473 10.0808 12.5237 10.088 12.4999C10.0922 12.489 10.0964 12.4782 10.1006 12.4674C10.11 12.4299 10.1195 12.3923 10.1291 12.3547C10.1481 12.2946 10.1631 12.2335 10.1741 12.1717C10.1834 12.131 10.1905 12.09 10.1953 12.0485C10.21 11.9479 10.222 11.8476 10.2229 11.7459C10.2216 11.6833 10.2174 11.6207 10.2102 11.5585C10.2072 11.5162 10.2021 11.4741 10.1951 11.4323C10.1861 11.3701 10.1772 11.3086 10.1621 11.2472C10.1509 11.2057 10.1397 11.1642 10.1284 11.1227C10.1004 11.0362 10.0673 10.9514 10.0292 10.8685C10.0271 10.8633 10.0164 10.8519 10.01 10.8518C10.0052 10.8517 9.99848 10.8559 10.0007 10.8615C10.0009 10.862 10.0011 10.8626 10.0013 10.8631C9.99913 10.8584 9.99703 10.8536 9.99482 10.8489C9.99293 10.8444 9.98558 10.8356 9.9799 10.8357C9.97959 10.8357 9.97926 10.8357 9.97885 10.8358C9.98032 10.8348 9.98169 10.8335 9.98306 10.832C10.0208 10.7894 10.0452 10.7334 10.0722 10.6841C10.0946 10.6434 10.1157 10.6005 10.1218 10.5544C10.1272 10.5141 10.1199 10.4742 10.0933 10.4416C10.0631 10.4044 10.0062 10.3869 10.0378 10.3332C10.0737 10.2721 10.1265 10.219 10.0739 10.1496C10.0471 10.1142 10.0047 10.0947 9.97318 10.064C9.93694 10.0284 9.91971 9.98076 9.92066 9.93214C9.92287 9.93334 9.92581 9.93275 9.92686 9.92973C9.95732 9.84192 9.93526 9.7455 9.90407 9.65998C9.88705 9.61358 9.85101 9.60084 9.80911 9.59854C9.99061 9.26022 10.1605 8.91648 10.3118 8.56483C10.3169 8.5533 10.3218 8.54178 10.3267 8.53024C10.3341 8.513 10.3185 8.49006 10.3006 8.48624C10.1697 8.45887 10.0334 8.45015 9.90008 8.43813Z" fill="#282828"/>
<path fill-rule="evenodd" clip-rule="evenodd" d="M8.73151 3.24628C8.72798 3.12641 8.54529 3.07664 8.49251 3.19536C8.48923 3.19854 8.48567 3.20159 8.48233 3.20433C8.49886 3.19081 8.46431 3.21318 8.45869 3.21595C8.45388 3.21831 8.44896 3.22045 8.44406 3.22265C8.41011 2.91898 8.29486 2.59161 7.99706 2.43918C7.58171 2.24695 7.10176 2.20943 6.64608 2.22853C6.41524 2.2416 6.14868 2.27683 5.9436 2.16538C5.87969 2.13065 5.82846 2.07599 5.75625 2.05453C5.52829 1.99567 5.42489 2.21908 5.45594 2.40279C5.35871 2.40352 5.26225 2.4549 5.22029 2.53948C5.19565 2.58954 5.19608 2.64356 5.17483 2.6938C5.10964 2.82121 5.01635 2.91279 5.06909 3.06727C4.97633 3.168 5.02922 3.3205 5.10407 3.41694C5.14103 3.46711 5.18505 3.51526 5.21213 3.57141C5.23841 3.62517 5.19874 3.68892 5.17666 3.73989C5.01343 4.10927 5.02276 4.51606 5.11059 4.90136C4.93434 4.97434 4.88144 5.2025 4.99637 5.34615C5.03592 5.39694 5.08416 5.41578 5.13888 5.44703C5.20812 5.4834 5.15157 5.62907 5.17374 5.69942C5.20386 5.87116 5.36772 5.97693 5.52974 5.8654C5.63255 5.85055 5.71548 6.13603 5.79014 6.20769C5.83613 6.26543 5.8872 6.31727 5.94272 6.36512C6.10816 6.77135 6.95587 6.97735 7.37498 6.95383C7.81388 6.90998 8.10997 6.55426 8.35651 6.23855C8.48311 6.07034 8.56545 5.88206 8.59539 5.67671C8.62548 5.47033 8.61232 5.26358 8.59198 5.05695C8.54926 4.61793 8.48187 3.98544 8.43835 3.54168C8.59562 3.52932 8.73628 3.40154 8.73151 3.24628Z" fill="white"/>
<path fill-rule="evenodd" clip-rule="evenodd" d="M5.3032 2.98241C5.30306 2.98303 5.30328 2.9835 5.30342 2.98416C5.30346 2.98397 5.30349 2.98387 5.30354 2.98364C5.30341 2.98314 5.30332 2.98281 5.3032 2.98241Z" fill="#4F66AF"/>
<path fill-rule="evenodd" clip-rule="evenodd" d="M5.30319 2.98872C5.30262 2.98814 5.3018 2.98771 5.30098 2.98713C5.30096 2.98715 5.30095 2.98717 5.30094 2.98719C5.3017 2.98767 5.30244 2.98822 5.30319 2.98872Z" fill="#4F66AF"/>
<path fill-rule="evenodd" clip-rule="evenodd" d="M8.70647 3.30296C8.75813 3.262 8.8395 3.29971 8.822 3.36714C8.80296 3.44058 8.72048 3.49076 8.6524 3.52094C8.58232 3.55198 8.51406 3.55797 8.4376 3.55458L8.43665 3.55438C8.45788 3.6356 8.46992 3.72004 8.48616 3.80176C8.50677 3.90543 8.52704 4.00915 8.54701 4.11292C8.56632 4.21322 8.59074 4.31366 8.60558 4.41446C8.62055 4.51622 8.63492 4.61804 8.64963 4.71983C8.67417 4.88983 8.69398 5.06061 8.71486 5.2311L8.72482 5.3118C8.74573 5.48261 8.76257 5.65363 8.72293 5.82361C8.68578 5.98292 8.60209 6.13152 8.50501 6.2645C8.40994 6.39471 8.30374 6.51991 8.18716 6.63318C7.96229 6.85162 7.68499 7.02657 7.35984 7.05902C7.21984 7.07299 7.0703 7.05745 6.93868 7.00888L6.92994 7.00562C6.79671 6.95542 6.63355 6.86946 6.59887 6.7284C6.57758 6.64187 6.67101 6.57432 6.75293 6.61538C6.79088 6.63441 6.81942 6.65614 6.85058 6.6834L6.8561 6.68827C6.88156 6.71084 6.89136 6.71777 6.92074 6.73543C6.981 6.7716 7.02617 6.78873 7.09461 6.80517C7.2208 6.83546 7.35699 6.83067 7.48509 6.79484C7.75708 6.71878 7.96807 6.5203 8.14883 6.32128C8.24698 6.21321 8.34014 6.09985 8.41198 5.97389C8.48737 5.84174 8.52216 5.703 8.52007 5.55263C8.51771 5.38297 8.49314 5.21265 8.47702 5.04379C8.46059 4.87165 8.4454 4.69956 8.43202 4.52717C8.41949 4.36551 8.41827 4.20312 8.41389 4.04096L8.41303 4.01055C8.41046 3.92446 8.40867 3.83835 8.40662 3.75224C8.4046 3.66638 8.39748 3.57943 8.40674 3.49393C8.4074 3.48771 8.41619 3.48613 8.41834 3.49243C8.4238 3.50845 8.42858 3.52472 8.43309 3.54108C8.43379 3.54057 8.43456 3.54012 8.43551 3.53981C8.49542 3.52017 8.5506 3.48094 8.59555 3.43864C8.63845 3.39827 8.66085 3.33914 8.70647 3.30296ZM5.4285 2.10013C5.46613 1.95261 5.63549 1.91966 5.76073 1.9907C5.82097 2.02486 5.8692 2.07413 5.92547 2.11329C5.98141 2.15222 6.04323 2.18349 6.10847 2.20557C6.23808 2.24944 6.37479 2.26539 6.51177 2.26596C6.84516 2.26735 7.17173 2.17793 7.50561 2.18791C7.76396 2.19563 8.03817 2.26849 8.22556 2.44672C8.32651 2.54274 8.39156 2.66617 8.42646 2.79722C8.44276 2.85847 8.45492 2.9212 8.46451 2.98379L8.46685 2.99943C8.47222 3.03601 8.48083 3.07473 8.48163 3.1117C8.48236 3.1449 8.47355 3.17965 8.46879 3.21251C8.45873 3.28177 8.34631 3.27389 8.33016 3.21251C8.29337 3.07276 8.30877 2.92853 8.26382 2.78926C8.22395 2.66576 8.1467 2.55778 8.03476 2.48393C7.56253 2.17238 6.95694 2.43328 6.43663 2.40904C6.30946 2.40312 6.18042 2.38436 6.06047 2.34257C5.99862 2.32102 5.93772 2.29474 5.88164 2.26168C5.83025 2.23141 5.78574 2.19337 5.73817 2.15838L5.71719 2.14316C5.68458 2.11974 5.62908 2.08314 5.59618 2.11411C5.58186 2.12759 5.581 2.15807 5.58126 2.18135L5.58142 2.19187C5.58291 2.29069 5.60401 2.38932 5.56527 2.4848C5.54759 2.52834 5.49846 2.5558 5.45174 2.53114L5.44933 2.52981C5.3505 2.4737 5.22065 2.58645 5.29657 2.67976L5.29893 2.68258C5.34165 2.73213 5.31888 2.81937 5.24243 2.81915L5.23967 2.81911C5.10346 2.81505 5.04303 2.97751 5.16043 3.04849L5.16405 3.05062C5.25937 3.10506 5.17576 3.23594 5.07806 3.19101C5.08634 3.19481 5.07195 3.19476 5.06372 3.20531C5.05581 3.21543 5.05522 3.2242 5.0571 3.23699C5.0628 3.27574 5.09851 3.3084 5.12744 3.33292C5.19315 3.38862 5.27461 3.42709 5.35854 3.4505C5.69477 3.54431 6.03971 3.42956 6.36729 3.36026C6.70882 3.28802 7.09456 3.25892 7.3924 3.46393C7.39594 3.46635 7.39284 3.47177 7.38892 3.46961C7.17517 3.35114 6.91338 3.36166 6.67973 3.41023C6.37333 3.47392 6.06962 3.59248 5.75582 3.62371C5.84392 3.77213 5.88079 3.94743 5.85726 4.11719C5.84106 4.23405 5.79232 4.33541 5.73477 4.43813L5.72378 4.45771C5.67246 4.54991 5.63271 4.63702 5.63208 4.74383C5.63146 4.84996 5.46614 4.87233 5.43812 4.76889C5.3745 4.53397 5.60627 4.34894 5.70084 4.15522C5.78166 3.98962 5.78415 3.79654 5.71874 3.62698C5.64495 3.63264 5.57057 3.63324 5.49545 3.62684C5.43092 3.62134 5.36454 3.61024 5.29984 3.59268L5.27395 3.69653C5.23966 3.83485 5.20789 3.97309 5.19826 4.11677C5.19117 4.22234 5.19154 4.32844 5.20233 4.43375C5.21166 4.52471 5.23134 4.61243 5.25137 4.70124C5.26856 4.72287 5.27734 4.75598 5.27251 4.78236C5.38406 4.81301 5.47179 4.89701 5.50385 5.00827C5.5058 5.01505 5.49587 5.01886 5.49215 5.01298C5.41609 4.89255 5.22024 4.84824 5.09635 4.9278C4.97804 5.00376 4.93137 5.15713 4.99834 5.27855C5.03357 5.34239 5.0858 5.38725 5.15314 5.41814L5.16668 5.42421C5.20197 5.44015 5.23437 5.45752 5.25707 5.48953C5.28651 5.53105 5.2875 5.57494 5.28472 5.62238L5.28352 5.64161C5.28166 5.67342 5.28124 5.70615 5.29116 5.73675L5.29342 5.74355C5.29603 5.75118 5.29879 5.7579 5.30357 5.76519C5.30499 5.76736 5.3184 5.77991 5.32277 5.78445L5.32827 5.78604L5.33443 5.78628C5.34125 5.78638 5.35023 5.78355 5.34728 5.78551L5.34809 5.78507C5.35068 5.78353 5.35306 5.7819 5.35507 5.78046L5.35888 5.77761C5.3678 5.76532 5.37897 5.75515 5.39268 5.7474L5.40578 5.74184C5.4398 5.70756 5.49809 5.72557 5.52248 5.75972C5.54004 5.78428 5.54948 5.80925 5.55026 5.83388C5.553 5.82968 5.55909 5.82739 5.56296 5.83209L5.58609 5.86021C5.67457 5.9681 5.76152 6.07666 5.86206 6.17501C5.91744 6.2292 5.97702 6.28012 6.0393 6.32702C6.09247 6.36707 6.19332 6.4056 6.19487 6.47855C6.19535 6.50223 6.17773 6.519 6.15618 6.52704C6.08603 6.55319 5.99935 6.46423 5.94868 6.42095L5.94454 6.41745C5.88253 6.36562 5.82594 6.30872 5.77371 6.24787C5.67228 6.12968 5.58746 5.99364 5.55008 5.84399C5.54832 5.8701 5.53658 5.89569 5.51372 5.91984C5.48329 5.95198 5.44165 5.97451 5.39716 5.98379C5.29638 6.00481 5.19798 5.9702 5.13802 5.89006C5.08733 5.8223 5.07241 5.73283 5.07895 5.65098L5.07976 5.64116C5.08068 5.62803 5.08185 5.60394 5.08541 5.59369L5.05367 5.57706C5.01477 5.5573 4.97871 5.5314 4.94635 5.50293C4.81628 5.38849 4.75102 5.20251 4.81048 5.03977C4.84768 4.93796 4.92583 4.84938 5.02591 4.80334C5.00918 4.76644 5.00359 4.72263 4.99728 4.68386L4.99622 4.67745C4.98552 4.61386 4.97656 4.54946 4.97314 4.48511C4.96676 4.36492 4.97452 4.2436 4.99431 4.1248C5.02645 3.93185 5.09299 3.72721 5.21496 3.56534C5.12191 3.53008 5.03626 3.47902 4.97015 3.40813C4.90107 3.33405 4.85702 3.22799 4.91045 3.13392C4.92406 3.10994 4.9418 3.08978 4.96219 3.07377C4.92683 3.01006 4.91539 2.93475 4.93721 2.86278C4.96328 2.77673 5.03406 2.70962 5.11957 2.67828C5.09881 2.59676 5.11578 2.50906 5.17923 2.44112C5.24217 2.37372 5.33991 2.34917 5.43037 2.36458C5.43527 2.27787 5.40667 2.18564 5.4285 2.10013ZM5.17481 5.14444C5.25774 5.1057 5.35604 5.11186 5.43888 5.14857L5.44449 5.15111C5.53494 5.19297 5.65473 5.29076 5.62598 5.39477C5.60915 5.4556 5.53834 5.47637 5.48343 5.45012C5.43756 5.42817 5.42709 5.38895 5.40408 5.34954C5.38781 5.32168 5.3677 5.29989 5.34407 5.27749C5.29428 5.23029 5.23834 5.19522 5.17481 5.16716C5.16565 5.16311 5.16596 5.14858 5.17481 5.14444ZM7.26456 3.04206C7.25678 3.03868 7.26243 3.02706 7.27025 3.02918C7.47865 3.08598 7.67296 3.21347 7.78907 3.39043C7.79615 3.40122 7.79723 3.419 7.78907 3.42968L7.78531 3.43453C7.77999 3.44117 7.77473 3.44606 7.76472 3.44755C7.7459 3.45033 7.72954 3.44565 7.7187 3.42968C7.60432 3.26101 7.45777 3.12641 7.26456 3.04206ZM8.65971 3.07546C8.67737 3.04692 8.72418 3.05266 8.7335 3.08466L8.73485 3.08745C8.73988 3.09835 8.73759 3.10059 8.7282 3.09441C8.75144 3.11268 8.76195 3.13988 8.75485 3.16914C8.71649 3.32712 8.52899 3.43993 8.36553 3.4244C8.35127 3.42305 8.34933 3.40632 8.36226 3.40133C8.42514 3.37703 8.48096 3.33756 8.52584 3.28914C8.56946 3.24206 8.58781 3.1882 8.61128 3.13135C8.62008 3.11001 8.63378 3.09465 8.65307 3.08625C8.65562 3.08289 8.65785 3.0793 8.65971 3.07546ZM7.73017 2.9739L7.7313 2.97397C7.81528 2.98433 7.88794 3.02388 7.94691 3.08184C8.00372 3.13766 8.07541 3.22976 8.06926 3.31167C8.0652 3.36597 7.9843 3.39701 7.95411 3.34144C7.9361 3.30828 7.93201 3.27193 7.9194 3.23687C7.90782 3.20473 7.89183 3.17421 7.8727 3.1456C7.8333 3.08663 7.77912 3.03668 7.72364 2.99161C7.71715 2.98634 7.72167 2.97393 7.73017 2.9739ZM5.57602 2.94986C5.5574 2.93294 5.57677 2.90409 5.60045 2.9098C5.72537 2.93998 5.84908 2.97669 5.97896 2.98034C6.04383 2.98215 6.10834 2.97727 6.1726 2.96926L6.20513 2.96514C6.25524 2.9589 6.30622 2.954 6.35575 2.96382C6.38877 2.97037 6.39522 3.01096 6.37465 3.03215C6.27748 3.13218 6.09005 3.12261 5.96118 3.10575C5.82124 3.08743 5.68004 3.04443 5.57602 2.94986ZM7.83184 2.63806C7.82329 2.62674 7.83768 2.60888 7.8513 2.6139C7.97544 2.65969 8.10555 2.77891 8.13975 2.90364C8.14878 2.93659 8.10524 2.96147 8.07968 2.93702C8.03203 2.89144 7.9984 2.83759 7.95813 2.78636C7.918 2.73529 7.87103 2.68993 7.83184 2.63806ZM5.79778 2.69376C5.78782 2.68427 5.79784 2.66536 5.81215 2.67019C5.89297 2.69751 5.97441 2.72115 6.05932 2.73355C6.14629 2.74624 6.23408 2.7366 6.3215 2.74174C6.35687 2.74381 6.38095 2.79632 6.34164 2.81266C6.16694 2.88525 5.92966 2.81943 5.79778 2.69376ZM6.02095 2.53098C6.00707 2.52117 6.01496 2.49427 6.03386 2.50178C6.11083 2.53236 6.18867 2.53988 6.27128 2.53673C6.30179 2.53556 6.30821 2.58132 6.27847 2.58749C6.18716 2.60645 6.09557 2.58362 6.02095 2.53098Z" fill="#282828"/>
<path fill-rule="evenodd" clip-rule="evenodd" d="M7.63425 5.88766C7.65037 5.86093 7.68746 5.83616 7.72141 5.83996C7.87349 5.85698 7.87323 6.03295 7.81451 6.13567C7.76244 6.22676 7.65468 6.28023 7.54683 6.27242C7.43353 6.26421 7.33699 6.20064 7.2945 6.09949C7.2664 6.03257 7.25342 5.90905 7.32817 5.86409C7.32955 5.86324 7.33184 5.86346 7.33294 5.86467C7.36878 5.90445 7.37019 5.96419 7.40157 6.00849C7.43074 6.04969 7.47608 6.08371 7.52918 6.08896C7.56885 6.09289 7.60897 6.07924 7.62448 6.04526C7.63288 6.02687 7.63192 6.01689 7.62877 6.00424L7.6259 5.99325C7.61597 5.95474 7.6115 5.92542 7.63425 5.88766ZM7.67491 5.11594C7.75422 5.16195 7.87508 5.26924 7.78975 5.38331C7.68931 5.48389 7.54471 5.36857 7.47345 5.31641C7.40737 5.27599 7.33313 5.37995 7.39443 5.42715C7.90936 5.79098 8.11833 5.12797 7.71502 5.06184C7.67062 5.05455 7.65413 5.1017 7.67491 5.11594ZM6.83732 4.80041C6.886 4.73071 6.99713 4.74097 7.02395 4.82369C7.03847 4.8685 7.01841 4.90878 7.01945 4.95352C7.02032 4.99133 7.01773 5.03345 7.00559 5.07006C6.9779 5.15354 6.89923 5.2125 6.80615 5.21006C6.71339 5.20762 6.63168 5.15158 6.59282 5.07266C6.55383 4.99344 6.56209 4.91145 6.59056 4.8309C6.59192 4.82703 6.59724 4.82515 6.60044 4.82841C6.63409 4.86254 6.65872 4.89856 6.6842 4.93678L6.71032 4.97594C6.73028 5.00543 6.75929 5.04311 6.79656 5.04074L6.80216 5.04021C6.81251 5.03937 6.81093 5.04133 6.81892 5.02785C6.82261 5.02162 6.82194 5.01003 6.82373 5.00267L6.82435 5.00019L6.82401 4.99885C6.82322 4.99528 6.82244 4.98857 6.8218 4.97692L6.82167 4.97434C6.81897 4.91984 6.80282 4.8498 6.83732 4.80041ZM8.07141 4.84683C8.06268 4.75767 8.19402 4.73788 8.23768 4.80385C8.26046 4.83825 8.26709 4.88146 8.27212 4.92241L8.27448 4.94184C8.27964 4.98389 8.28169 5.02764 8.26257 5.06686C8.23244 5.12864 8.16693 5.1613 8.09626 5.15613C8.02877 5.15118 7.9672 5.11384 7.93475 5.05715C7.90581 5.00657 7.87704 4.90781 7.91218 4.85505C7.91431 4.85185 7.91855 4.85144 7.92146 4.85391C7.95467 4.88205 7.96008 4.93337 7.97983 4.97003C8.00019 5.00784 8.03109 5.04469 8.0779 5.05043C8.12269 5.05593 8.1398 5.03258 8.12837 4.99183C8.11363 4.93922 8.07695 4.90344 8.07141 4.84683ZM6.87281 4.27036L6.89429 4.26251C6.96788 4.23598 7.06891 4.20531 7.12874 4.26242C7.16565 4.29764 7.17268 4.34951 7.14634 4.39249C7.11442 4.44454 7.05716 4.44582 7.00187 4.45349C6.93898 4.46221 6.87503 4.47879 6.81648 4.50243C6.75053 4.52907 6.68932 4.56227 6.62936 4.59935C6.57236 4.63458 6.51557 4.69217 6.44735 4.70303C6.44456 4.70347 6.4414 4.70233 6.44068 4.69941C6.42519 4.63575 6.46824 4.57311 6.50666 4.52345C6.55315 4.46333 6.60948 4.41398 6.67244 4.36973C6.73321 4.32702 6.80264 4.29615 6.87281 4.27036ZM8.20957 4.49669L8.21613 4.4956C8.26075 4.48851 8.30119 4.49014 8.33482 4.52387C8.36049 4.5496 8.37039 4.58295 8.35815 4.61698C8.34686 4.64836 8.32161 4.68025 8.28496 4.68683C8.16124 4.70904 8.0242 4.70537 7.89985 4.68855C7.84297 4.68085 7.78556 4.67143 7.73015 4.65657L7.70466 4.64952C7.6584 4.63691 7.60544 4.62373 7.57184 4.59126C7.55976 4.5796 7.56672 4.5629 7.58117 4.55749C7.6398 4.53558 7.72017 4.54724 7.78269 4.54552C7.85541 4.54354 7.92826 4.53834 8.00064 4.53117C8.07137 4.52415 8.13981 4.5089 8.20957 4.49669Z" fill="#282828"/>
<path fill-rule="evenodd" clip-rule="evenodd" d="M7.68649 5.50662C7.56968 5.45641 7.35992 5.50022 7.28377 5.51764C7.10673 5.55816 6.92863 5.64572 6.87359 5.78291C6.81156 5.93751 6.93532 5.98618 6.95352 5.97823C7.07608 5.98647 7.22202 5.91294 7.35045 5.89396C7.45471 5.87843 7.5647 5.86486 7.66238 5.812C7.7337 5.84944 7.89478 5.86968 8.02479 5.90241C8.13551 5.93028 8.18348 5.99072 8.28612 5.97787C8.40914 5.96247 8.35878 5.71554 8.22168 5.61551C8.07162 5.50604 7.81783 5.46164 7.68649 5.50662ZM7.91777 6.56244C7.81558 6.58621 7.80871 6.37245 7.79726 6.29692C7.78832 6.23792 7.73787 6.08576 7.60998 6.09233C7.48209 6.09889 7.43402 6.22637 7.44051 6.30566C7.44471 6.35708 7.49436 6.61753 7.33589 6.65048C7.23486 6.65014 7.11797 6.64363 7.01174 6.62494C6.8867 6.59791 6.72411 6.50329 6.68117 6.68963C6.66571 6.7567 7.2165 6.95595 7.46091 6.97397C7.70878 7.02191 7.99879 6.9482 8.17526 6.76723C8.21541 6.72606 8.32848 6.55518 8.33654 6.51332C8.35347 6.42535 8.31428 6.36875 8.20023 6.39975C8.11966 6.44081 7.9835 6.54714 7.91777 6.56244Z" fill="#282828"/>
<path fill-rule="evenodd" clip-rule="evenodd" d="M8.61496 5.17723C8.48743 5.30298 8.27454 5.33907 8.10488 5.27163C7.66923 5.09792 7.88246 4.55611 8.21844 4.4106C8.26042 4.40062 8.31647 4.37693 8.3676 4.37156C8.37222 4.36939 8.38228 4.37566 8.39447 4.36973C8.76495 4.40921 8.84932 4.95806 8.61496 5.17723ZM7.2098 5.20939C7.06677 5.39044 6.80086 5.4463 6.5836 5.36213C6.1544 5.20082 6.30663 4.72037 6.60028 4.53202C7.2206 4.30957 7.47675 4.87558 7.2098 5.20939ZM6.27938 4.80826C6.27898 4.80808 6.27858 4.80799 6.27817 4.80781C6.28044 4.80686 6.28271 4.8059 6.28497 4.80493C6.28423 4.80677 6.28343 4.80858 6.28272 4.81042C6.28161 4.80968 6.28063 4.80883 6.27938 4.80826ZM8.91024 4.61245C8.87523 4.61252 8.82464 4.61801 8.79565 4.6412C8.72416 4.41111 8.46029 4.19817 8.2308 4.35344C8.05009 4.40891 7.91599 4.53191 7.83977 4.69545C7.70235 4.61744 7.48627 4.65075 7.36711 4.75391C7.28907 4.50781 7.097 4.42163 6.86838 4.40891C6.61886 4.3699 6.37015 4.60117 6.29255 4.7867C6.22803 4.77969 6.13161 4.7601 6.07091 4.7981C5.67695 4.6995 4.98817 4.64514 4.90808 4.69992C4.85101 4.72082 4.81968 4.84939 4.89941 4.85633C4.96888 4.84692 4.8913 4.76212 4.96133 4.75287C5.33445 4.7308 5.69667 4.80251 6.06584 4.8326C6.0988 4.87491 6.2053 4.88907 6.26211 4.87207C6.17263 5.18679 6.36579 5.40091 6.65522 5.46504C7.10338 5.56329 7.49329 5.18068 7.3761 4.78272C7.51186 4.71827 7.66802 4.72103 7.81591 4.75498C7.56878 5.62298 9.03359 5.58404 8.80481 4.67094C8.95706 4.74322 8.99012 4.62703 8.91024 4.61245Z" fill="#282828"/>
</svg>
