<svg width="60" height="39" viewBox="0 0 60 39" fill="none" xmlns="http://www.w3.org/2000/svg">
<g clip-path="url(#clip0_936_4903)">
<path d="M4.10654 1.15381H55.778C57.4088 1.15381 58.7308 2.45019 58.7308 4.04919V34.4507C58.7308 36.0498 57.4088 37.3461 55.778 37.3461H4.10654C2.47585 37.3461 1.15385 36.0498 1.15385 34.4507V4.04919C1.15385 2.45019 2.47585 1.15381 4.10654 1.15381Z" stroke="#7699AF" stroke-width="2"/>
<path d="M54.2262 19.2485C54.2262 27.3816 47.4642 34.0008 39.1531 34.0008C35.6865 34.0008 32.4908 32.8468 29.9415 30.917C27.3936 32.8468 24.1979 34.0008 20.7315 34.0008C12.4208 34.0008 5.65923 27.3817 5.65923 19.2485C5.65923 11.1147 12.4209 4.49927 20.7315 4.49927C24.1981 4.49927 27.3938 5.64888 29.9415 7.5815C32.491 5.64888 35.6867 4.49927 39.1531 4.49927C47.4638 4.49927 54.2262 11.1153 54.2262 19.2485ZM39.1315 5.80158C36.0741 5.80158 33.2515 6.78188 30.9708 8.43619C33.0389 10.3199 34.5685 12.766 35.2993 15.5228H33.9024C33.1867 13.0856 31.7877 10.9338 29.9195 9.27788C28.0534 10.9338 26.6534 13.0856 25.9404 15.5228H24.5413C25.2738 12.766 26.8034 10.3199 28.8716 8.43619C26.5899 6.78188 23.7684 5.80158 20.7093 5.80158C13.1308 5.80158 6.987 11.8139 6.987 19.2323C6.987 26.6487 13.1308 32.6631 20.7093 32.6631C23.7683 32.6631 26.5898 31.6828 28.8716 30.0287C26.9255 28.2549 25.4574 25.9823 24.6812 23.4243H26.0938C26.8442 25.6642 28.1765 27.6412 29.9195 29.1867C31.6645 27.6412 32.9985 25.6642 33.7489 23.4243H35.1611C34.3836 25.9824 32.9158 28.255 30.9707 30.0287C33.2511 31.6828 36.0737 32.6631 39.1315 32.6631C46.71 32.6631 52.8538 26.6489 52.8538 19.2323C52.8538 11.814 46.7102 5.80158 39.1315 5.80158Z" fill="#7699AF"/>
<path d="M15.1592 16.0085H12.9619L11.5887 20.0148L11.5315 16.0085H9.49523L8.38977 22.4815H9.71492L10.566 17.5362L10.6848 22.4815H11.6503L13.4596 17.5066L12.6489 22.4815H14.0642L15.1592 16.0085ZM18.8063 22.4755H17.6332L17.6605 21.9292C17.3025 22.3605 16.8256 22.5668 16.1777 22.5668C15.4092 22.5668 14.8858 21.9795 14.8858 21.1302C14.8858 19.8465 15.7985 19.1005 17.3688 19.1005C17.5297 19.1005 17.7356 19.1151 17.9462 19.1415C17.9899 18.9664 18.0005 18.8928 18.0005 18.7986C18.0005 18.4513 17.7552 18.3203 17.0934 18.3203C16.4017 18.3115 15.8302 18.4808 15.5957 18.5574C15.6107 18.4691 15.7928 17.3739 15.7928 17.3739C16.4967 17.1708 16.9626 17.0943 17.4862 17.0943C18.7013 17.0943 19.3452 17.6271 19.3436 18.6368C19.3452 18.9077 19.2999 19.2417 19.2292 19.6821C19.1059 20.4428 18.8427 22.0765 18.8065 22.4753V22.4755H18.8063ZM17.812 20.1551C17.6632 20.1402 17.5983 20.1344 17.4961 20.1344C16.6929 20.1344 16.2882 20.4035 16.2882 20.9335C16.2882 21.2621 16.4868 21.4708 16.7936 21.4708C17.3713 21.4708 17.7862 20.9335 17.812 20.1551ZM37.3389 15.8638C35.4633 15.8638 34.1516 17.4798 34.1516 19.7938C34.1516 21.5128 35.101 22.5873 36.6245 22.5873C37.0154 22.5873 37.3537 22.5372 37.8742 22.396L38.1223 20.9225C37.6545 21.1479 37.2697 21.2552 36.9204 21.2552C36.0978 21.2552 35.6012 20.6605 35.6012 19.6786C35.6012 18.2525 36.3401 17.2531 37.3972 17.2531C37.7898 17.2531 38.1568 17.3532 38.6621 17.6035L38.8937 16.1995C38.6864 16.1198 37.9568 15.8638 37.3389 15.8638ZM42.4294 22.4755H41.2579L41.285 21.9292C40.9255 22.3605 40.4472 22.5668 39.8003 22.5668C39.0334 22.5668 38.5069 21.9795 38.5069 21.1302C38.5069 19.8465 39.4229 19.1005 40.9915 19.1005C41.1525 19.1005 41.3586 19.1151 41.5695 19.1415C41.6127 18.9664 41.6234 18.8928 41.6234 18.7986C41.6234 18.4513 41.3782 18.3203 40.7178 18.3203C40.0246 18.3115 39.4547 18.4808 39.2198 18.5574C39.2335 18.4691 39.4155 17.3739 39.4155 17.3739C40.1208 17.1708 40.5869 17.0943 41.1073 17.0943C42.3242 17.0943 42.9681 17.6271 42.9665 18.6368C42.9694 18.9077 42.9229 19.2417 42.8522 19.6821C42.7304 20.4428 42.4659 22.0765 42.4295 22.4753V22.4755H42.4294ZM41.4345 20.1551C41.2872 20.1402 41.221 20.1344 41.1172 20.1344C40.3155 20.1344 39.9093 20.4035 39.9093 20.9335C39.9093 21.2621 40.108 21.4708 40.4179 21.4708C40.9941 21.4708 41.4105 20.9335 41.4345 20.1551ZM25.7707 21.2555C25.6759 21.2881 25.5512 21.3055 25.3902 21.3055C25.0534 21.3055 24.9045 21.188 24.9045 20.9155C24.9076 20.7478 25.1407 19.5026 25.3032 18.5031H26.0293L26.222 17.2372H25.4985L25.6624 16.4428H24.2561C24.2561 16.4428 23.7238 19.541 23.6442 20.031C23.5538 20.5918 23.4397 21.2027 23.4485 21.4352C23.4485 22.1845 23.8426 22.5922 24.5658 22.5922C24.8941 22.5922 25.1958 22.5391 25.5844 22.4215L25.7707 21.2555ZM30.0942 22.3548C29.61 22.4992 29.1435 22.5668 28.6504 22.5668C27.0739 22.5635 26.253 21.7588 26.253 20.2177C26.253 18.4189 27.2982 17.0942 28.7165 17.0942C29.876 17.0942 30.6177 17.8346 30.6177 19.0002C30.6177 19.3858 30.565 19.7612 30.443 20.2956H27.6425C27.5478 21.0565 28.0474 21.3744 28.8655 21.3744C29.3691 21.3744 29.822 21.2742 30.3273 21.0448L30.0942 22.3548ZM29.3568 19.267C29.3658 19.1581 29.5055 18.3248 28.7024 18.3248C28.2541 18.3248 27.9324 18.662 27.8032 19.267H29.3568ZM19.9268 18.8752C19.9268 19.5421 20.2545 19.9998 21.0035 20.3458C21.5766 20.6106 21.6653 20.6872 21.6653 20.9273C21.6653 21.2537 21.4126 21.4011 20.8516 21.4011C20.4305 21.4011 20.0365 21.3391 19.5836 21.1951C19.5836 21.1951 19.3974 22.3548 19.3882 22.4109C19.7117 22.4788 19.9973 22.5431 20.8622 22.5669C22.3555 22.5669 23.0445 22.0089 23.0445 20.8079C23.0445 20.0824 22.7572 19.6614 22.0471 19.3417C21.4548 19.0738 21.3855 19.0151 21.3855 18.7693C21.3855 18.4837 21.6216 18.3395 22.0803 18.3395C22.3569 18.3395 22.7375 18.369 23.0955 18.4191L23.2972 17.1973C22.9301 17.1414 22.3752 17.0943 22.0518 17.0943C20.4681 17.0942 19.9207 17.9023 19.9268 18.8752ZM50.396 22.4816H49.0561L49.1238 21.9917C48.7342 22.3966 48.3358 22.5732 47.8184 22.5732C46.7895 22.5732 46.1098 21.7062 46.1098 20.3903C46.1098 18.6371 47.1638 17.1624 48.4121 17.1624C48.9598 17.1624 49.3777 17.3802 49.7645 17.8793L50.0772 16.0086H51.4732L50.396 22.4816ZM48.3114 21.2752C48.97 21.2752 49.4348 20.5434 49.4348 19.5013C49.4348 18.8316 49.1717 18.4695 48.684 18.4695C48.0418 18.4695 47.5862 19.2011 47.5862 20.2358C47.5862 20.9262 47.8301 21.2752 48.3114 21.2752ZM43.9589 17.2235C43.7815 18.8515 43.4671 20.5015 43.222 22.1324L43.1572 22.487H44.5711C45.0779 19.2682 45.2011 18.6396 45.9938 18.719C46.1199 18.0582 46.3545 17.4828 46.532 17.1915C45.9384 17.0705 45.6072 17.4003 45.1758 18.023C45.2101 17.7521 45.2719 17.4915 45.2585 17.2235H43.9589ZM31.5597 17.2235C31.3818 18.8515 31.0662 20.5015 30.821 22.1324L30.7562 22.487H32.1714C32.6783 19.2682 32.8001 18.6396 33.5926 18.719C33.7205 18.0582 33.9565 17.4828 34.1312 17.1915C33.54 17.0705 33.2065 17.4003 32.7745 18.023C32.8091 17.7521 32.8705 17.4915 32.8587 17.2235H31.5597Z" fill="#7699AF"/>
</g>
<defs>
<clipPath id="clip0_936_4903">
<rect width="60" height="38.4615" fill="white"/>
</clipPath>
</defs>
</svg>
