<svg width="14" height="12" viewBox="0 0 14 12" fill="none" xmlns="http://www.w3.org/2000/svg">
<path d="M2.92822 2.62109C2.92822 2.75781 2.88037 2.8763 2.78467 2.97656C2.68896 3.07682 2.57275 3.12695 2.43604 3.12695C2.2902 3.12695 2.16943 3.07682 2.07373 2.97656C1.97803 2.8763 1.93018 2.75781 1.93018 2.62109C1.93018 2.48438 1.97803 2.36816 2.07373 2.27246C2.16943 2.17676 2.2902 2.12891 2.43604 2.12891C2.57275 2.12891 2.68896 2.17676 2.78467 2.27246C2.88037 2.36816 2.92822 2.48438 2.92822 2.62109ZM4.18604 6.62695V1.62305C4.18604 1.48633 4.13591 1.37012 4.03564 1.27441C3.93538 1.17871 3.81689 1.13086 3.68018 1.13086H1.43799C1.30127 1.13086 1.18278 1.17871 1.08252 1.27441C0.982259 1.37012 0.932129 1.48633 0.932129 1.62305V6.62695C0.932129 6.76367 0.982259 6.87988 1.08252 6.97559C1.18278 7.07129 1.30127 7.11914 1.43799 7.11914H3.68018C3.81689 7.11914 3.93538 7.07129 4.03564 6.97559C4.13591 6.87988 4.18604 6.76367 4.18604 6.62695ZM13.0044 5.46484C13.132 5.61068 13.2345 5.78841 13.312 5.99805C13.3895 6.20768 13.4282 6.41732 13.4282 6.62695C13.4282 7.02799 13.2801 7.37891 12.9839 7.67969C12.6877 7.98047 12.339 8.13086 11.938 8.13086H9.76416C9.80062 8.24935 9.83708 8.34049 9.87354 8.4043C9.90999 8.4681 9.95101 8.54102 9.99658 8.62305C10.0968 8.82357 10.1948 9.0446 10.2905 9.28613C10.3862 9.52767 10.4341 9.80794 10.4341 10.127C10.4341 10.4277 10.3612 10.8356 10.2153 11.3506C10.0695 11.8656 9.55908 12.123 8.68408 12.123C8.62028 12.123 8.55648 12.1094 8.49268 12.082C8.42887 12.0547 8.37419 12.0182 8.32861 11.9727C8.16455 11.8086 8.04834 11.6126 7.97998 11.3848C7.91162 11.1569 7.85465 10.929 7.80908 10.7012C7.76351 10.4733 7.7111 10.25 7.65186 10.0312C7.59261 9.8125 7.48551 9.62565 7.33057 9.4707C7.21208 9.35221 7.08675 9.21322 6.95459 9.05371C6.82243 8.89421 6.68343 8.72331 6.5376 8.54102C6.36442 8.31315 6.12744 8.02376 5.82666 7.67285C5.52588 7.32194 5.30257 7.14193 5.15674 7.13281C5.02913 7.1237 4.91748 7.07129 4.82178 6.97559C4.72607 6.87988 4.67822 6.76367 4.67822 6.62695V1.62305C4.67822 1.48633 4.72835 1.37012 4.82861 1.27441C4.92887 1.17871 5.04736 1.13086 5.18408 1.13086C5.3208 1.12175 5.49854 1.08301 5.71729 1.01465C5.93604 0.946289 6.16846 0.866536 6.41455 0.775391C6.83382 0.638672 7.30094 0.495117 7.81592 0.344727C8.33089 0.194336 8.87093 0.119141 9.43604 0.119141H10.4341C10.7804 0.128255 11.0835 0.182942 11.3433 0.283203C11.603 0.383464 11.8149 0.533854 11.979 0.734375C12.1248 0.907552 12.2319 1.11263 12.3003 1.34961C12.3687 1.58659 12.3892 1.85091 12.3618 2.14258C12.4621 2.24284 12.5487 2.35449 12.6216 2.47754C12.6945 2.60059 12.7492 2.73503 12.7856 2.88086C12.8312 3.03581 12.854 3.19075 12.854 3.3457C12.854 3.50065 12.8312 3.65104 12.7856 3.79688C12.9041 3.95182 12.9907 4.12044 13.0454 4.30273C13.1001 4.48503 13.1229 4.67188 13.1138 4.86328C13.1138 4.91797 13.1069 5 13.0933 5.10938C13.0796 5.21875 13.05 5.33724 13.0044 5.46484Z" fill="#7699AF"/>
</svg>
