<svg width="24" height="24" viewBox="0 0 24 24" fill="none" xmlns="http://www.w3.org/2000/svg">
<path d="M21.3562 22.2198C21.915 22.7755 22.7776 21.9177 22.2188 21.3741L17.6628 16.8316C19.2058 15.1281 20.1413 12.8811 20.1413 10.4165C20.1413 5.11289 15.804 0.799927 10.4705 0.799927C5.13706 0.799927 0.799805 5.11289 0.799805 10.4165C0.799805 15.7201 5.13706 20.0331 10.4705 20.0331C12.8761 20.0331 15.0994 19.1512 16.8002 17.6893L21.3562 22.2198ZM2.01351 10.4165C2.01351 5.77735 5.81619 2.00804 10.4693 2.00804C15.1346 2.00804 18.9251 5.77735 18.9251 10.4165C18.9251 15.0557 15.1346 18.825 10.4693 18.825C5.81619 18.825 2.01351 15.0557 2.01351 10.4165Z" fill="#1D1D1F"/>
</svg>
