<svg width="24" height="24" viewBox="0 0 24 24" fill="none" xmlns="http://www.w3.org/2000/svg">
<g id="&#240;&#159;&#166;&#134; icon &#34;filter&#34;" clip-path="url(#clip0_1380_21911)">
<path id="Vector" d="M5.49962 5.00012H18.4996C18.6436 5.05063 18.7742 5.13343 18.8813 5.24219C18.9883 5.35094 19.0691 5.48276 19.1174 5.62755C19.1656 5.77233 19.1801 5.92624 19.1597 6.07749C19.1393 6.22874 19.0845 6.37331 18.9996 6.50013L13.9996 12.0001V19.0002L9.99962 16.0002V12.0001L4.99962 6.50013C4.91471 6.37331 4.85995 6.22874 4.83955 6.07749C4.81914 5.92624 4.83362 5.77233 4.88188 5.62755C4.93014 5.48276 5.01091 5.35094 5.11798 5.24219C5.22506 5.13343 5.3556 5.05063 5.49962 5.00012Z" stroke="#F5F5F7" stroke-linecap="round" stroke-linejoin="round"/>
</g>
<defs>
<clipPath id="clip0_1380_21911">
<rect width="24" height="24.0001" fill="white"/>
</clipPath>
</defs>
</svg>
