<svg width="18" height="17" viewBox="0 0 18 17" fill="none" xmlns="http://www.w3.org/2000/svg">
<path d="M9.3869 12.7496L8.99935 12.5157L8.6118 12.7496L4.98069 14.9412L5.9383 10.8112L6.04029 10.3713L5.69928 10.0753L2.49582 7.29508L6.72212 6.93064L7.17173 6.89187L7.34806 6.47646L8.99935 2.58624L10.6506 6.47646L10.827 6.89187L11.2766 6.93064L15.5006 7.29489L12.2916 10.0749L11.9494 10.3713L12.0523 10.8121L13.0152 14.9395L9.3869 12.7496Z" fill="#7699AF" stroke="#7699AF" stroke-width="1.5"/>
<path d="M9 13.3917L14.15 16.5001L12.7833 10.6417L17.3333 6.70008L11.3417 6.18341L9 0.666748V13.375V13.3917Z" fill="#F5F5F7"/>
<path d="M9.3869 12.7496L8.99935 12.5157L8.6118 12.7496L4.98069 14.9412L5.9383 10.8112L6.04029 10.3713L5.69928 10.0753L2.49582 7.29508L6.72212 6.93064L7.17173 6.89187L7.34806 6.47646L8.99935 2.58624L10.6506 6.47646L10.827 6.89187L11.2766 6.93064L15.5006 7.29489L12.2916 10.0749L11.9494 10.3713L12.0523 10.8121L13.0152 14.9395L9.3869 12.7496Z" stroke="#7699AF" stroke-width="1.5"/>
</svg>
