<svg width="48" height="48" viewBox="0 0 48 48" fill="none" xmlns="http://www.w3.org/2000/svg">
<g clip-path="url(#clip0_936_4801)">
<path d="M32.3083 33.5682L35.9339 16.2572L35.932 16.2591C36.2522 14.7425 35.3909 14.1382 34.4008 14.5038L13.1149 22.8197C11.6554 23.4055 11.6886 24.2207 12.8664 24.5993L18.314 26.323L30.9556 18.2532C31.5427 17.8559 32.0838 18.0816 31.6421 18.4789L21.4095 27.847L21.0175 33.5439H21.0267C21.4739 33.5439 21.8733 33.3294 22.1309 32.9936L24.7921 30.3933L30.3133 34.5158C31.32 35.0941 32.0414 34.7956 32.3083 33.5682Z" fill="#7699AF"/>
</g>
<rect x="1" y="1" width="46" height="46" rx="23" stroke="#7699AF" stroke-width="2"/>
<defs>
<clipPath id="clip0_936_4801">
<rect width="24" height="24" fill="white" transform="translate(12 12)"/>
</clipPath>
</defs>
</svg>
