<svg width="60" height="39" viewBox="0 0 60 39" fill="none" xmlns="http://www.w3.org/2000/svg">
<g clip-path="url(#clip0_936_4907)">
<path d="M4.11438 1.53845H55.9239C57.5591 1.53845 58.8845 2.83199 58.8845 4.42761V34.7645C58.8845 36.3602 57.5591 37.6538 55.9239 37.6538H4.11438C2.47931 37.6538 1.15385 36.3603 1.15385 34.7645V4.42761C1.15385 2.83199 2.47931 1.53845 4.11438 1.53845Z" stroke="#7699AF" stroke-width="2"/>
<path d="M22.8354 26.8231L25.3045 12.6831H29.2541L26.7831 26.8231H22.8354ZM41.0508 12.9877C40.2683 12.7013 39.0425 12.3938 37.5112 12.3938C33.6088 12.3938 30.86 14.3116 30.8366 17.0601C30.8145 19.092 32.799 20.2254 34.2969 20.9017C35.8342 21.5948 36.351 22.0367 36.3437 22.6556C36.3339 23.6035 35.116 24.0366 33.981 24.0366C32.4003 24.0366 31.5605 23.8223 30.2635 23.2943L29.7546 23.0696L29.2002 26.2349C30.1228 26.6296 31.8285 26.9716 33.5995 26.9893C37.7508 26.9893 40.4458 25.0935 40.4765 22.1585C40.4914 20.5499 39.4393 19.3257 37.1608 18.3166C35.7804 17.6626 34.9349 17.226 34.944 16.5636C34.944 15.976 35.6595 15.3473 37.2055 15.3473C38.4971 15.3278 39.4325 15.6026 40.1614 15.8891L40.5153 16.0523L41.0507 12.9875M51.2138 12.6826H48.1622C47.2168 12.6826 46.5093 12.9345 46.094 13.8553L40.229 26.8138H44.3759C44.3759 26.8138 45.054 25.0713 45.2075 24.6888C45.6607 24.6888 49.6893 24.6949 50.2653 24.6949C50.3834 25.19 50.7457 26.8138 50.7457 26.8138H54.4104L51.2138 12.6823V12.6826ZM46.372 21.8134C46.6986 20.9987 47.9455 17.8607 47.9455 17.8607C47.9222 17.8985 48.2697 17.042 48.4693 16.5113L48.7361 17.7304C48.7361 17.7304 49.4923 21.1056 49.6504 21.8134H46.372ZM19.4835 12.6826L15.6171 22.325L15.2051 20.3653C14.4853 18.1063 12.2427 15.659 9.73562 14.4337L13.2709 26.7999L17.4494 26.7952L23.6668 12.6821H19.4835" fill="#7699AF"/>
<path d="M12.0085 12.6831H5.64023L5.58985 12.9773C10.5442 14.1478 13.8222 16.9761 15.1837 20.3747L13.7989 13.8768C13.5598 12.9816 12.8665 12.7144 12.0088 12.6831" fill="#7699AF"/>
</g>
<defs>
<clipPath id="clip0_936_4907">
<rect width="60" height="38.4615" fill="white" transform="translate(0 0.461548)"/>
</clipPath>
</defs>
</svg>
