<svg width="13" height="13" viewBox="0 0 13 13" fill="none" xmlns="http://www.w3.org/2000/svg">
<path d="M2.33813 9.62305C2.33813 9.48633 2.29028 9.37012 2.19458 9.27441C2.09888 9.17871 1.98267 9.13086 1.84595 9.13086C1.70011 9.13086 1.57935 9.17871 1.48364 9.27441C1.38794 9.37012 1.34009 9.48633 1.34009 9.62305C1.34009 9.76888 1.38794 9.88965 1.48364 9.98535C1.57935 10.0811 1.70011 10.1289 1.84595 10.1289C1.98267 10.1289 2.09888 10.0811 2.19458 9.98535C2.29028 9.88965 2.33813 9.76888 2.33813 9.62305ZM3.59595 5.63086V10.6211C3.59595 10.7578 3.54582 10.8763 3.44556 10.9766C3.3453 11.0768 3.22681 11.127 3.09009 11.127H0.8479C0.711182 11.127 0.592692 11.0768 0.492432 10.9766C0.392171 10.8763 0.342041 10.7578 0.342041 10.6211V5.63086C0.342041 5.49414 0.392171 5.37565 0.492432 5.27539C0.592692 5.17513 0.711182 5.125 0.8479 5.125H3.09009C3.22681 5.125 3.3453 5.17513 3.44556 5.27539C3.54582 5.37565 3.59595 5.49414 3.59595 5.63086ZM12.8381 5.63086C12.8381 5.83138 12.7994 6.03646 12.7219 6.24609C12.6445 6.45573 12.5419 6.63802 12.4143 6.79297C12.4599 6.91146 12.4895 7.02539 12.5032 7.13477C12.5168 7.24414 12.5237 7.32617 12.5237 7.38086C12.5328 7.58138 12.51 7.77051 12.4553 7.94824C12.4006 8.12598 12.314 8.29232 12.1956 8.44727C12.2411 8.5931 12.2639 8.74349 12.2639 8.89844C12.2639 9.05339 12.2411 9.20833 12.1956 9.36328C12.1591 9.50911 12.1044 9.64583 12.0315 9.77344C11.9586 9.90104 11.872 10.0104 11.7717 10.1016C11.7991 10.3932 11.7786 10.6576 11.7102 10.8945C11.6418 11.1315 11.5347 11.3366 11.3889 11.5098C11.2249 11.7103 11.0129 11.863 10.7532 11.9678C10.4934 12.0726 10.1903 12.125 9.84399 12.125H8.84595C8.28084 12.125 7.7408 12.0521 7.22583 11.9062C6.71086 11.7604 6.24373 11.6146 5.82446 11.4688C5.57837 11.3867 5.34595 11.3092 5.1272 11.2363C4.90845 11.1634 4.73071 11.127 4.59399 11.127C4.45728 11.1178 4.33879 11.0654 4.23853 10.9697C4.13826 10.874 4.08813 10.7578 4.08813 10.6211V5.61719C4.08813 5.48958 4.13599 5.37793 4.23169 5.28223C4.32739 5.18652 4.43905 5.12956 4.56665 5.11133C4.71248 5.10221 4.93579 4.9222 5.23657 4.57129C5.53735 4.22038 5.77433 3.93555 5.94751 3.7168C6.09334 3.5345 6.23234 3.36133 6.3645 3.19727C6.49666 3.0332 6.62199 2.89193 6.74048 2.77344C6.89543 2.61849 7.00252 2.43164 7.06177 2.21289C7.12101 1.99414 7.17342 1.77083 7.21899 1.54297C7.26457 1.3151 7.32153 1.08724 7.38989 0.859375C7.45825 0.631511 7.57446 0.435547 7.73853 0.271484C7.7841 0.225911 7.83879 0.189453 7.90259 0.162109C7.96639 0.134766 8.03019 0.121094 8.09399 0.121094C8.96899 0.121094 9.47941 0.380859 9.62524 0.900391C9.77108 1.41992 9.84399 1.83008 9.84399 2.13086C9.84399 2.44987 9.79614 2.72786 9.70044 2.96484C9.60474 3.20182 9.50675 3.42057 9.40649 3.62109C9.36092 3.71224 9.31991 3.78743 9.28345 3.84668C9.24699 3.90592 9.21053 3.99935 9.17407 4.12695H11.3479C11.7489 4.12695 12.0976 4.27506 12.3938 4.57129C12.69 4.86751 12.8381 5.2207 12.8381 5.63086Z" fill="#7699AF"/>
</svg>
